<?xml version="1.0" encoding="UTF-8"?>
<svg width="56px" height="42px" viewBox="0 0 56 42" version="1.1" xmlns="http://www.w3.org/2000/svg" xmlns:xlink="http://www.w3.org/1999/xlink">
    <title>F8AB1786-7129-4AA1-B50E-84EF92FEF2DA</title>
    <g id="CBC-3---V1-Hi-fi" stroke="none" stroke-width="1" fill="none" fill-rule="evenodd">
        <g id="6200-Top-up-select-card" transform="translate(-32.000000, -313.000000)">
            <g id="Group-5" transform="translate(16.000000, 145.000000)">
                <g id="Payment-Card-Type/Visa" transform="translate(16.000000, 168.000000)">
                    <rect id="Rectangle" fill-opacity="0.1" fill="#1E0A46" x="0" y="0" width="56" height="42" rx="4"></rect>
                    <g id="VisaWhite" transform="translate(21.000000, 28.000000)" fill="#1A1F71" fill-rule="nonzero">
                        <path d="M12,0 L7.86382979,10 L5.15744681,10 L3.11489362,2.02072539 C3.01276596,1.55440415 2.85957447,1.34715026 2.50212766,1.13989637 C1.8893617,0.829015544 0.868085106,0.466321244 0,0.310880829 L0.0510638298,0 L4.39148936,0 C4.95319149,0 5.46382979,0.362694301 5.56595745,1.03626943 L6.63829787,6.83937824 L9.29361702,0.0518134715 L12,0.0518134715 L12,0 Z M21.5231788,6.68341709 C21.5231788,4.12060302 17.8145695,3.96984925 17.8145695,2.86432161 C17.8145695,2.51256281 18.1854305,2.16080402 18.9271523,2.06030151 C19.2980132,2.01005025 20.3576159,1.95979899 21.5231788,2.51256281 L22,0.452261307 C21.3642384,0.251256281 20.5695364,0 19.5099338,0 C16.9139073,0 15.0596026,1.30653266 15.0596026,3.2160804 C15.0596026,4.62311558 16.384106,5.37688442 17.3907285,5.82914573 C18.397351,6.28140704 18.7682119,6.58291457 18.7682119,7.03517588 C18.7682119,7.68844221 17.9735099,7.98994975 17.1788079,7.98994975 C15.8543046,7.98994975 15.0596026,7.63819095 14.4768212,7.38693467 L14,9.49748744 C14.6357616,9.74874372 15.7483444,10 16.9139073,10 C19.6688742,10 21.4701987,8.69346734 21.5231788,6.68341709 M28.6871508,10 L31,10 L28.9888268,0 L26.8268156,0 C26.3240223,0 25.9217877,0.310880829 25.7709497,0.725388601 L22,10 L24.6145251,10 L25.1173184,8.49740933 L28.3351955,8.49740933 L28.6871508,10 Z M26,6 L27.2682927,2 L28,6 L26,6 Z M15,0 L13.1978022,10 L11,10 L12.8021978,0 L15,0 Z" id="Shape"></path>
                    </g>
                </g>
            </g>
        </g>
    </g>
</svg>