<?xml version="1.0" encoding="UTF-8"?>
<svg class="customer-ui__icon" width="24" height="24" viewBox="0 0 24 24" fill="#000000" version="1.1" xmlns="http://www.w3.org/2000/svg" xmlns:xlink="http://www.w3.org/1999/xlink">
  <title>Arrow Right</title>
  <path d="M12.7 20.8C12.3 21.2 11.7 21.1 11.3 20.7C11 20.3 11 19.8 11.3 19.4L11.4 19.3L19.6 12L13 6.20001V10C13 11.6 11.8 12.9 10.2 13H10H3C2.4 13 2 12.6 2 12C2 11.5 2.4 11.1 2.9 11H3H10C10.5 11 10.9 10.6 11 10.1V10V4.00001C11 3.20001 11.9 2.70001 12.6 3.20001L12.7 3.30001L21.7 11.3C22.1 11.7 22.2 12.3 21.8 12.7L21.7 12.8L12.7 20.8Z" fill="inherit" />
</svg>
