<?xml version="1.0" encoding="UTF-8"?>
<svg class="customer-ui__icon" width="24" height="24" viewBox="0 0 24 24" fill="#000000" version="1.1" xmlns="http://www.w3.org/2000/svg" xmlns:xlink="http://www.w3.org/1999/xlink">
  <title>Arrow Up</title>
  <path d="M20.8 11.3C21.2 11.7 21.1 12.3 20.7 12.7C20.3 13 19.8 13 19.4 12.7L19.3 12.6L12 4.50001L6.20001 11H10C11.6 11 12.9 12.2 13 13.8V14V21C13 21.6 12.6 22 12 22C11.5 22 11.1 21.6 11 21.1V21V14C11 13.5 10.6 13.1 10.1 13H10H4.00001C3.20001 13 2.70001 12.1 3.20001 11.4L3.30001 11.3L11.3 2.30001C11.7 1.90001 12.3 1.80001 12.7 2.20001L12.8 2.30001L20.8 11.3Z" fill="inherit" />
</svg>
