<?xml version="1.0" encoding="UTF-8"?>
<svg class="customer-ui__icon" width="24" height="24" viewBox="0 0 24 24" fill="#000000" version="1.1" xmlns="http://www.w3.org/2000/svg" xmlns:xlink="http://www.w3.org/1999/xlink">
  <title>Arrow Left</title>
  <path d="M11.3 3.3C12 2.7 12.9 3.1 13 3.9V4V10C13 10.5 13.4 10.9 13.9 11H14H21C21.6 11 22 11.4 22 12C22 12.5 21.6 12.9 21.1 13H21H14C12.4 13 11.1 11.8 11 10.2V10V6.2L4.50003 12L12.7 19.3C13.1 19.6 13.1 20.2 12.9 20.6L12.8 20.7C12.5 21.1 11.9 21.1 11.5 20.9L11.4 20.8L2.40003 12.8C2.00003 12.4 2.00003 11.8 2.30003 11.4L2.40003 11.3L11.3 3.3Z" fill="inherit" />
</svg>
