<?xml version="1.0" encoding="UTF-8"?>
<svg class="customer-ui__icon" width="24" height="24" viewBox="0 0 24 24" fill="#000000" version="1.1" xmlns="http://www.w3.org/2000/svg" xmlns:xlink="http://www.w3.org/1999/xlink">
  <title>Arrow Down</title>
  <path d="M3.3 12.7C2.7 12 3.1 11.1 3.9 11H4H10C10.5 11 10.9 10.6 11 10.1V10V3C11 2.4 11.4 2 12 2C12.5 2 12.9 2.4 13 2.9V3V10C13 11.6 11.8 12.9 10.2 13H10H6.2L12 19.5L19.3 11.3C19.6 10.9 20.2 10.9 20.6 11.1L20.7 11.2C21.1 11.5 21.1 12.1 20.9 12.5L20.8 12.6L12.8 21.6C12.4 22 11.8 22 11.4 21.7L11.3 21.6L3.3 12.7Z" fill="inherit" />
</svg>
