<svg class="prefix__customer-ui__icon" width="24" height="24" fill="#000000" xmlns="http://www.w3.org/2000/svg" xmlns:xlink="http://www.w3.org/1999/xlink"><defs><path d="M18 2l.176.005a3 3 0 012.819 2.819L21 5v12l-.007.117a1 1 0 01-1.986 0L19 17V5l-.007-.117a1 1 0 00-.877-.876L18 4H6l-.117.007a1 1 0 00-.876.876L5 5v14.404l2.6-1.262.123-.05a1 1 0 01.636.003l.121.05 3.522 1.74 3.558-1.741.122-.05a1 1 0 01.636 0l.121.05 4 1.958.102.057a1 1 0 01.402 1.173l-.045.108-.057.101a1 1 0 01-1.173.402l-.108-.045L16 20.155l-3.56 1.743-.123.05a1 1 0 01-.638-.001l-.122-.05-3.524-1.742L4.436 21.9l-.106.044a1 1 0 01-1.323-.823L3 21V5l.005-.176a3 3 0 012.819-2.819L6 2h12zm-6 12a1 1 0 01.117 1.993L12 16H8a1 1 0 01-.117-1.993L8 14h4zm4 0a1 1 0 110 2 1 1 0 010-2zm-4-4a1 1 0 01.117 1.993L12 12H8a1 1 0 01-.117-1.993L8 10h4zm4 0a1 1 0 110 2 1 1 0 010-2zm-4-4a1 1 0 01.117 1.993L12 8H8a1 1 0 01-.117-1.993L8 6h4zm4 0a1 1 0 110 2 1 1 0 010-2z" id="prefix__a"/></defs><g fill-rule="evenodd"><path fill="none" d="M0 0h24v24H0z"/><mask id="prefix__b" fill="#fff"><use xlink:href="#prefix__a"/></mask><path fill="inherit" mask="url(#prefix__b)" d="M0 0h24v24H0z"/></g></svg>