<?xml version="1.0" encoding="UTF-8"?>
<svg class="customer-ui__icon" width="24" height="24" viewBox="0 0 24 24" fill="#000000" version="1.1"
  xmlns="http://www.w3.org/2000/svg" xmlns:xlink="http://www.w3.org/1999/xlink">
  <title>Bill Protector</title>
  <path
    d="M12.0005 1.61523C9.94644 1.61528 7.93852 2.22443 6.23066 3.36564C4.5228 4.50685 3.19171 6.12888 2.4057 8.0266C1.61969 9.92432 1.41407 12.0125 1.81484 14.0271C2.21562 16.0417 3.20478 17.8922 4.65725 19.3446C6.10973 20.797 7.96027 21.786 9.97487 22.1867C11.9895 22.5874 14.0776 22.3817 15.9753 21.5956C17.873 20.8095 19.495 19.4783 20.6361 17.7704C21.7772 16.0625 22.3863 14.0545 22.3862 12.0005C22.3831 9.24704 21.2878 6.60728 19.3408 4.66035C17.3938 2.71341 14.7539 1.61829 12.0005 1.61523ZM18.6743 17.0571V9.56298C18.6735 8.93463 18.4236 8.33224 17.9793 7.88793C17.5349 7.44362 16.9326 7.19366 16.3042 7.19286H7.54933C6.92098 7.19366 6.31859 7.44362 5.87428 7.88793C5.42997 8.33224 5.18 8.93463 5.17921 9.56298V15.1382C5.17921 15.4034 5.28457 15.6578 5.4721 15.8453C5.65964 16.0328 5.91399 16.1382 6.17921 16.1382C6.44443 16.1382 6.69878 16.0328 6.88632 15.8453C7.07385 15.6578 7.17921 15.4034 7.17921 15.1382V9.56298C7.17932 9.46486 7.21834 9.37077 7.28773 9.30139C7.35712 9.232 7.4512 9.19297 7.54933 9.19286H16.3042C16.4023 9.19297 16.4964 9.232 16.5658 9.30139C16.6352 9.37077 16.6742 9.46486 16.6743 9.56298V18.9592C14.9145 20.1546 12.7694 20.6443 10.6651 20.331C8.56081 20.0177 6.65138 18.9243 5.31613 17.2681C3.98089 15.6118 3.31754 13.5138 3.45786 11.391C3.59819 9.26816 4.53193 7.27579 6.07357 5.80968C7.61522 4.34358 9.65196 3.51103 11.7792 3.47745C13.9064 3.44386 15.9684 4.21169 17.5555 5.6284C19.1427 7.0451 20.1389 9.00701 20.3461 11.1244C20.5534 13.2417 19.9566 15.3596 18.6743 17.0572V17.0571Z"
    fill="inherit" />
  <path
    d="M9.06617 13.6655H11.9724C12.2376 13.6655 12.4919 13.5602 12.6794 13.3727C12.8668 13.1852 12.9722 12.9309 12.9722 12.6658C12.9722 12.4006 12.8668 12.1463 12.6794 11.9588C12.4919 11.7713 12.2376 11.666 11.9724 11.666H9.06617C8.80101 11.666 8.54672 11.7713 8.35923 11.9588C8.17174 12.1463 8.06641 12.4006 8.06641 12.6658C8.06641 12.9309 8.17174 13.1852 8.35923 13.3727C8.54672 13.5602 8.80101 13.6655 9.06617 13.6655Z"
    fill="inherit" />
  <path
    d="M14.8105 13.6695C14.9429 13.6699 15.0741 13.6436 15.1961 13.5921C15.3181 13.5406 15.4285 13.4649 15.5205 13.3697C15.6135 13.2785 15.6871 13.1695 15.7369 13.0492C15.7868 12.9288 15.8118 12.7997 15.8105 12.6695C15.8119 12.5378 15.787 12.4071 15.7372 12.2852C15.6874 12.1632 15.6137 12.0525 15.5205 11.9595C15.4291 11.8648 15.3196 11.7895 15.1984 11.7381C15.0773 11.6867 14.947 11.6602 14.8154 11.6602C14.6838 11.6602 14.5536 11.6867 14.4324 11.7381C14.3113 11.7895 14.2018 11.8648 14.1104 11.9595C14.016 12.0521 13.9408 12.1626 13.8894 12.2845C13.8379 12.4063 13.8111 12.5372 13.8105 12.6695C13.8168 12.9327 13.9242 13.1835 14.1104 13.3697C14.2966 13.5559 14.5473 13.6632 14.8105 13.6695H14.8105Z"
    fill="inherit" />
  <path
    d="M9.06641 17.7539H11.9727C12.2379 17.7539 12.4922 17.6486 12.6798 17.461C12.8673 17.2735 12.9727 17.0191 12.9727 16.7539C12.9727 16.4887 12.8673 16.2343 12.6798 16.0468C12.4922 15.8593 12.2379 15.7539 11.9727 15.7539H9.06641C8.80119 15.7539 8.54684 15.8593 8.3593 16.0468C8.17176 16.2343 8.06641 16.4887 8.06641 16.7539C8.06641 17.0191 8.17176 17.2735 8.3593 17.461C8.54684 17.6486 8.80119 17.7539 9.06641 17.7539Z"
    fill="inherit" />
  <path
    d="M14.1104 17.4592C14.1995 17.5553 14.3089 17.6304 14.4307 17.679C14.6143 17.7506 14.8146 17.7679 15.0078 17.729C15.201 17.69 15.379 17.5964 15.5205 17.4592C15.6171 17.3703 15.6925 17.2609 15.7412 17.1389C15.7899 17.0149 15.8135 16.8825 15.8105 16.7493C15.8126 16.6193 15.7891 16.4902 15.7412 16.3694C15.6886 16.2496 15.6137 16.1409 15.5205 16.0491C15.4317 15.953 15.3226 15.8779 15.2012 15.8293C14.9542 15.7288 14.6777 15.7288 14.4307 15.8293C14.3089 15.8779 14.1995 15.953 14.1104 16.0491C14.0161 16.1398 13.941 16.2485 13.8895 16.3688C13.8381 16.4891 13.8112 16.6184 13.8105 16.7493C13.8111 16.8832 13.8384 17.0156 13.8906 17.1389C13.9389 17.2608 14.014 17.3703 14.1104 17.4592Z"
    fill="inherit" />
</svg>
