<svg class="customer-ui__icon" width="24px" height="24px" xmlns="http://www.w3.org/2000/svg">
  <title>Bin</title>
  <path d="M14.002 2a2 2 0 011.994 1.848l.006.149L16.004 6h3.04a1 1 0 011 1.032l-.01.112-1.917 13.145a2 2 0 01-1.824 1.705l-.155.006h-8.27a2 2 0 01-1.952-1.566l-.028-.153-1.433-10.1a1 1 0 011.957-.396l.023.115L7.868 20h8.27l1.749-12h-2.88a1 1 0 01-.994-.882l-.007-.116L14.002 4H10v3a1 1 0 01-.883.993L9 8H5.014a1 1 0 01-.117-1.993L5.014 6h2.985L8 4a2 2 0 011.85-1.995L10 2h4.002zM10 10a1 1 0 01.993.883L11 11v5a1 1 0 01-1.993.117L9 16v-5a1 1 0 011-1zm4 0a1 1 0 01.993.883L15 11v5a1 1 0 01-1.993.117L13 16v-5a1 1 0 011-1z" fill="inherit"/>
</svg>
