<?xml version="1.0" encoding="UTF-8"?>
<svg class="customer-ui__icon" fill="#000000" width="24px" height="24px" viewBox="0 0 24 24" version="1.1"
    xmlns="http://www.w3.org/2000/svg" xmlns:xlink="http://www.w3.org/1999/xlink">
    <title>Boiler</title>
    <path
        d="M12.2899 0.100098H3.71992C2.97548 0.105378 2.26333 0.404813 1.7388 0.933095C1.21426 1.46138 0.919903 2.17564 0.919922 2.9201V3.9201C0.919922 4.18531 1.02528 4.43967 1.21281 4.6272C1.40035 4.81474 1.65471 4.9201 1.91992 4.9201C2.18514 4.9201 2.43949 4.81474 2.62703 4.6272C2.81456 4.43967 2.91992 4.18531 2.91992 3.9201V2.9201C2.91913 2.81525 2.94005 2.71137 2.98135 2.615C3.02265 2.51862 3.08345 2.43184 3.15992 2.3601C3.30763 2.20937 3.50891 2.1231 3.71992 2.1201H12.2899C12.5021 2.1201 12.7056 2.20438 12.8556 2.35441C13.0056 2.50444 13.0899 2.70792 13.0899 2.9201V15.2301C13.0899 15.4423 13.0056 15.6458 12.8556 15.7958C12.7056 15.9458 12.5021 16.0301 12.2899 16.0301H11.2899C11.0247 16.0301 10.7704 16.1355 10.5828 16.323C10.3953 16.5105 10.2899 16.7649 10.2899 17.0301V17.9001H8.92992V17.0001C8.92992 16.7349 8.82456 16.4805 8.63703 16.293C8.44949 16.1055 8.19514 16.0001 7.92992 16.0001C7.66471 16.0001 7.41035 16.1055 7.22281 16.293C7.03528 16.4805 6.92992 16.7349 6.92992 17.0001V17.9401H5.71992V17.0001C5.71992 16.7349 5.61456 16.4805 5.42703 16.293C5.23949 16.1055 4.98514 16.0001 4.71992 16.0001H3.71992C3.50775 16.0001 3.30427 15.9158 3.15424 15.7658C3.00421 15.6158 2.91992 15.4123 2.91992 15.2001V7.0701C2.91992 6.80488 2.81456 6.55053 2.62703 6.36299C2.43949 6.17545 2.18514 6.0701 1.91992 6.0701C1.65471 6.0701 1.40035 6.17545 1.21281 6.36299C1.02528 6.55053 0.919922 6.80488 0.919922 7.0701V15.2301C0.930365 15.965 1.22829 16.6665 1.74983 17.1843C2.27137 17.7021 2.97501 17.9949 3.70992 18.0001V18.8701C3.70992 19.1353 3.81528 19.3897 4.00282 19.5772C4.19035 19.7647 4.44471 19.8701 4.70992 19.8701H11.2699C11.5351 19.8701 11.7895 19.7647 11.977 19.5772C12.1646 19.3897 12.2699 19.1353 12.2699 18.8701V18.0001C13.0117 17.9975 13.7224 17.7016 14.2469 17.1771C14.7714 16.6526 15.0673 15.9419 15.0699 15.2001V2.9001C15.0673 2.16174 14.7742 1.45407 14.254 0.930102C13.7338 0.406134 13.0282 0.107976 12.2899 0.100098Z"
        fill="inherit" />
    <path
        d="M9.61976 5.06011C9.48837 4.93673 9.32608 4.85114 9.15005 4.81242C8.97402 4.77369 8.7908 4.78326 8.61976 4.84011C7.78986 5.07296 7.06587 5.5853 6.57023 6.29049C6.0746 6.99567 5.83775 7.85041 5.89976 8.71011C5.84242 8.66395 5.77834 8.62685 5.70976 8.60011C5.5877 8.54958 5.45684 8.52373 5.32474 8.52405C5.19263 8.52438 5.0619 8.55088 4.9401 8.60202C4.81829 8.65316 4.70783 8.72792 4.61509 8.822C4.52234 8.91607 4.44916 9.02759 4.39976 9.15011C4.19287 9.66708 4.10307 10.2235 4.13681 10.7793C4.17055 11.3351 4.32699 11.8765 4.59489 12.3647C4.8628 12.8528 5.23551 13.2755 5.68624 13.6025C6.13697 13.9295 6.65453 14.1525 7.20173 14.2556C7.74893 14.3587 8.31218 14.3394 8.851 14.1989C9.38981 14.0584 9.89082 13.8003 10.318 13.4432C10.7452 13.086 11.088 12.6386 11.3217 12.1332C11.5554 11.6278 11.6743 11.0769 11.6698 10.5201C11.6333 9.51871 11.2313 8.56534 10.5398 7.84011C10.303 7.60124 10.1248 7.31085 10.019 6.99165C9.91317 6.67244 9.88263 6.33308 9.92976 6.00011C9.96409 5.83 9.95357 5.65388 9.89921 5.48907C9.84486 5.32426 9.74855 5.17643 9.61976 5.06011ZM7.93976 12.2901C7.47717 12.2902 7.03292 12.1093 6.70211 11.7859C6.3713 11.4626 6.18021 11.0226 6.16976 10.5601C6.17147 10.352 6.20867 10.1457 6.27976 9.95011C6.42731 10.1136 6.62469 10.2237 6.84126 10.2635C7.05783 10.3034 7.28148 10.2706 7.47751 10.1703C7.67354 10.07 7.83099 9.90778 7.92542 9.70886C8.01985 9.50994 8.04598 9.28541 7.99976 9.07011C7.91744 8.82912 7.88389 8.57415 7.90106 8.32007C7.91823 8.06598 7.98577 7.81785 8.09976 7.59011C8.31501 8.14979 8.62636 8.66756 9.01976 9.12011C9.41082 9.48512 9.64703 9.98618 9.67976 10.5201C9.67982 10.9844 9.49747 11.4301 9.17199 11.7612C8.84651 12.0923 8.40397 12.2822 7.93976 12.2901Z"
        fill="inherit"/>
</svg>