<?xml version="1.0" encoding="UTF-8"?>
<svg class="customer-ui__icon" width="24" height="24" viewBox="0 0 24 24" fill="#000000" xmlns="http://www.w3.org/2000/svg" xmlns:xlink="http://www.w3.org/1999/xlink">
  <mask id="mask0" mask-type="alpha" maskUnits="userSpaceOnUse" x="2" y="2" width="20" height="20">
    <path fill-rule="evenodd" clip-rule="evenodd" d="M19.528 2C20.8551 2 21.9415 3.0514 21.9977 4.36494L22 4.472V6.5C22 6.776 21.7765 7 21.5 7C21.2433 7 21.0322 6.80686 21.0034 6.55828L21 6.5V4.472C21 3.68948 20.3858 3.04737 19.6143 3.0025L19.528 3H4.472C3.68948 3 3.04737 3.61416 3.0025 4.38565L3 4.472V8H21.5C21.7567 8 21.9678 8.19314 21.9966 8.44172L22 8.5V19.528C22 20.8551 20.9486 21.9415 19.6351 21.9977L19.528 22H4.472C3.14487 22 2.05854 20.9486 2.00229 19.6351L2 19.528V10.7165C2 10.44 2.2235 10.2165 2.5 10.2165C2.75675 10.2165 2.9678 10.4092 2.99664 10.6581L3 10.7165V19.528C3 20.3105 3.61416 20.9526 4.38565 20.9975L4.472 21H19.528C20.3105 21 20.9526 20.3858 20.9975 19.6143L21 19.528V9H2.5C2.24325 9 2.0322 8.80686 2.00336 8.55828L2 8.5V4.472C2 3.14487 3.0514 2.05854 4.36494 2.00229L4.472 2H19.528ZM8.5 17.5C8.7765 17.5 9 17.724 9 18C9 18.2563 8.80729 18.4677 8.55838 18.4966L8.5 18.5H5.5C5.2235 18.5 5 18.276 5 18C5 17.7437 5.19271 17.5323 5.44162 17.5034L5.5 17.5H8.5ZM13.5 17.5C13.7765 17.5 14 17.724 14 18C14 18.2563 13.8073 18.4677 13.5584 18.4966L13.5 18.5H10.5C10.2235 18.5 10 18.276 10 18C10 17.7437 10.1927 17.5323 10.4416 17.5034L10.5 17.5H13.5ZM18.5 17.5C18.7765 17.5 19 17.724 19 18C19 18.2563 18.8073 18.4677 18.5584 18.4966L18.5 18.5H15.5C15.2235 18.5 15 18.276 15 18C15 17.7437 15.1927 17.5323 15.4416 17.5034L15.5 17.5H18.5ZM8.5 14.5C8.7765 14.5 9 14.724 9 15C9 15.2563 8.80729 15.4677 8.55838 15.4966L8.5 15.5H5.5C5.2235 15.5 5 15.276 5 15C5 14.7437 5.19271 14.5323 5.44162 14.5034L5.5 14.5H8.5ZM13.5 14.5C13.7765 14.5 14 14.724 14 15C14 15.2563 13.8073 15.4677 13.5584 15.4966L13.5 15.5H10.5C10.2235 15.5 10 15.276 10 15C10 14.7437 10.1927 14.5323 10.4416 14.5034L10.5 14.5H13.5ZM18.5 14.5C18.7765 14.5 19 14.724 19 15C19 15.2563 18.8073 15.4677 18.5584 15.4966L18.5 15.5H15.5C15.2235 15.5 15 15.276 15 15C15 14.7437 15.1927 14.5323 15.4416 14.5034L15.5 14.5H18.5ZM8.5 11.5C8.7765 11.5 9 11.724 9 12C9 12.2563 8.80729 12.4677 8.55838 12.4966L8.5 12.5H5.5C5.2235 12.5 5 12.276 5 12C5 11.7437 5.19271 11.5323 5.44162 11.5034L5.5 11.5H8.5ZM13.5 11.5C13.7765 11.5 14 11.724 14 12C14 12.2563 13.8073 12.4677 13.5584 12.4966L13.5 12.5H10.5C10.2235 12.5 10 12.276 10 12C10 11.7437 10.1927 11.5323 10.4416 11.5034L10.5 11.5H13.5ZM18.5 11.5C18.7765 11.5 19 11.724 19 12C19 12.2563 18.8073 12.4677 18.5584 12.4966L18.5 12.5H15.5C15.2235 12.5 15 12.276 15 12C15 11.7437 15.1927 11.5323 15.4416 11.5034L15.5 11.5H18.5ZM6.75 4C7.577 4 8.25 4.673 8.25 5.5C8.25 6.327 7.577 7 6.75 7C5.923 7 5.25 6.327 5.25 5.5C5.25 4.673 5.923 4 6.75 4ZM17.25 4C18.077 4 18.75 4.673 18.75 5.5C18.75 6.327 18.077 7 17.25 7C16.423 7 15.75 6.327 15.75 5.5C15.75 4.673 16.423 4 17.25 4ZM6.75 5C6.474 5 6.25 5.2245 6.25 5.5C6.25 5.7755 6.474 6 6.75 6C7.026 6 7.25 5.7755 7.25 5.5C7.25 5.2245 7.026 5 6.75 5ZM17.25 5C16.974 5 16.75 5.2245 16.75 5.5C16.75 5.7755 16.974 6 17.25 6C17.526 6 17.75 5.7755 17.75 5.5C17.75 5.2245 17.526 5 17.25 5Z" fill="white" />
  </mask>
  <g mask="url(#mask0)">
    <path fill-rule="evenodd" clip-rule="evenodd" d="M0 0H24V24H0V0Z" fill="inherit" />
  </g>
</svg>
