<?xml version="1.0" encoding="UTF-8"?>
<svg class="customer-ui__icon" width="24" height="24" viewBox="0 0 24 24" fill="#000000" version="1.1" xmlns="http://www.w3.org/2000/svg" xmlns:xlink="http://www.w3.org/1999/xlink">
  <path d="M19.7500432,2.40213751 L19.972825,2.5199491 L19.972825,2.5199491 L20.1844504,2.6486338 L20.1844504,2.6486338 L20.425254,2.81877221 L20.425254,2.81877221 L20.5668412,2.93187253 L20.5668412,2.93187253 L20.6518681,3.00534508 L20.6518681,3.00534508 C20.9287747,3.25016685 21.1721256,3.5336879 21.3732873,3.84886635 L21.5161131,4.09107592 L21.5984558,4.2512153 L21.5984558,4.2512153 L21.7182081,4.52234574 L21.7182081,4.52234574 L21.8116012,4.78332449 L21.8737333,4.99903224 L21.8737333,4.99903224 L21.935809,5.28334927 L21.935809,5.28334927 L21.9709376,5.51617644 L21.9709376,5.51617644 C21.982343,5.60995361 21.9904035,5.70471506 21.9951047,5.80035966 L22,6 C22,6.51283584 21.6139598,6.93550716 21.1166211,6.99327227 L21,7 C20.4871642,7 20.0644928,6.61395981 20.0067277,6.11662113 L20,6 C20,5.76338881 19.9589119,5.53637426 19.8834814,5.3257022 L19.8205748,5.17086776 L19.7873756,5.1007451 L19.7472011,5.0259714 L19.6639138,4.88993906 L19.5780557,4.77113755 L19.4859127,4.66129523 L19.4859127,4.66129523 L19.5439615,4.72783739 L19.4940953,4.6697289 L19.4940953,4.6697289 L19.3774014,4.54990286 L19.273474,4.45748818 L19.273474,4.45748818 L19.1532717,4.36572607 L19.1532717,4.36572607 L19.0228133,4.28096349 L18.890355,4.20862263 L18.7574127,4.14839722 L18.5807525,4.0859056 L18.5807525,4.0859056 L18.4697309,4.05547103 L18.362122,4.03287269 L18.3138904,4.02448956 C18.2620162,4.01631257 18.2094794,4.01012975 18.1563609,4.00602206 L18,4 L6,4 C4.9456382,4 4.08183488,4.81587779 4.00548574,5.85073766 L4,6 L4,7.986 L21,7.98623434 C21.5128358,7.98623434 21.9355072,8.37227453 21.9932723,8.86961322 L22,8.98623434 L22,18 C22,20.1421954 20.3160315,21.8910789 18.1996403,21.9951047 L18,22 L6,22 C3.85780461,22 2.10892112,20.3160315 2.00489531,18.1996403 L2,18 L2,13 C2,12.4477153 2.44771525,12 3,12 C3.51283584,12 3.93550716,12.3860402 3.99327227,12.8833789 L4,13 L4,18 C4,19.0543618 4.81587779,19.9181651 5.85073766,19.9945143 L6,20 L18,20 C19.0543618,20 19.9181651,19.1841222 19.9945143,18.1492623 L20,18 L20,9.986 L3,9.98623434 C2.48716416,9.98623434 2.06449284,9.60019415 2.00672773,9.10285547 L2,8.98623434 L2,6 C2,3.85780461 3.68396847,2.10892112 5.80035966,2.00489531 L6,2 L18,2 L18.2072697,2.00527753 L18.2072697,2.00527753 L18.4317657,2.02318211 L18.4317657,2.02318211 L18.5208422,2.03362045 L18.5208422,2.03362045 L18.7318521,2.06683483 L18.7318521,2.06683483 L18.9349884,2.10992123 L18.9349884,2.10992123 L19.1895405,2.17985165 L19.1895405,2.17985165 L19.3786374,2.24393008 L19.3786374,2.24393008 L19.4270825,2.26267994 C19.5369697,2.30404451 19.6447993,2.35085011 19.7500432,2.40213751 Z M8,16 C8.55228475,16 9,16.4477153 9,17 C9,17.5522847 8.55228475,18 8,18 L6,18 C5.44771525,18 5,17.5522847 5,17 C5,16.4477153 5.44771525,16 6,16 L8,16 Z M13,16 C13.5522847,16 14,16.4477153 14,17 C14,17.5522847 13.5522847,18 13,18 L11,18 C10.4477153,18 10,17.5522847 10,17 C10,16.4477153 10.4477153,16 11,16 L13,16 Z M18,16 C18.5522847,16 19,16.4477153 19,17 C19,17.5522847 18.5522847,18 18,18 L16,18 C15.4477153,18 15,17.5522847 15,17 C15,16.4477153 15.4477153,16 16,16 L18,16 Z M8,12 C8.55228475,12 9,12.4477153 9,13 C9,13.5522847 8.55228475,14 8,14 L6,14 C5.44771525,14 5,13.5522847 5,13 C5,12.4477153 5.44771525,12 6,12 L8,12 Z M13,12 C13.5522847,12 14,12.4477153 14,13 C14,13.5522847 13.5522847,14 13,14 L11,14 C10.4477153,14 10,13.5522847 10,13 C10,12.4477153 10.4477153,12 11,12 L13,12 Z M18,12 C18.5522847,12 19,12.4477153 19,13 C19,13.5522847 18.5522847,14 18,14 L16,14 C15.4477153,14 15,13.5522847 15,13 C15,12.4477153 15.4477153,12 16,12 L18,12 Z M7,5 C7.55228475,5 8,5.44771525 8,6 C8,6.55228475 7.55228475,7 7,7 C6.44771525,7 6,6.55228475 6,6 C6,5.44771525 6.44771525,5 7,5 Z M17,5 C17.5522847,5 18,5.44771525 18,6 C18,6.55228475 17.5522847,7 17,7 C16.4477153,7 16,6.55228475 16,6 C16,5.44771525 16.4477153,5 17,5 Z" id="path-1"></path>
</svg>
