<?xml version="1.0" encoding="UTF-8"?>
<svg width="24px" height="24px" class="customer-ui__icon" fill="#000000" viewBox="0 0 24 24" version="1.1" xmlns="http://www.w3.org/2000/svg" xmlns:xlink="http://www.w3.org/1999/xlink">
    <title>Close</title>
    <defs>
        <path d="M4.92893219,3.51471863 L11.9998254,10.5848254 L19.0710678,3.51471863 C19.4615921,3.12419433 20.0947571,3.12419433 20.4852814,3.51471863 C20.8758057,3.90524292 20.8758057,4.5384079 20.4852814,4.92893219 L13.4138254,11.9998254 L20.4852814,19.0710678 C20.8758057,19.4615921 20.8758057,20.0947571 20.4852814,20.4852814 C20.0947571,20.8758057 19.4615921,20.8758057 19.0710678,20.4852814 L11.9998254,13.4138254 L4.92893219,20.4852814 C4.5384079,20.8758057 3.90524292,20.8758057 3.51471863,20.4852814 C3.12419433,20.0947571 3.12419433,19.4615921 3.51471863,19.0710678 L10.5848254,11.9998254 L3.51471863,4.92893219 C3.12419433,4.5384079 3.12419433,3.90524292 3.51471863,3.51471863 C3.90524292,3.12419433 4.5384079,3.12419433 4.92893219,3.51471863 Z" id="path-1"></path>
    </defs>
    <g id="Icons-/--24x24-/-Close" stroke="none" stroke-width="1" fill="inherit" fill-rule="evenodd">
        <mask id="mask-2" fill="white">
            <use xlink:href="#path-1"></use>
        </mask>
        <rect id="Color" fill="inherit" mask="url(#mask-2)" x="0" y="0" width="24" height="24"></rect>
    </g>
</svg>