<?xml version="1.0" encoding="UTF-8"?>
<svg width="24px" height="24px" class="customer-ui__icon" fill="#000000" viewBox="0 0 24 24" version="1.1" xmlns="http://www.w3.org/2000/svg" xmlns:xlink="http://www.w3.org/1999/xlink">
    <title>Dropdown arrow</title>
    <defs>
        <path d="M4.42653766,6.18076808 C4.84418316,5.88841623 5.40760196,5.95968507 5.74091504,6.32824303 L5.81923192,6.42653766 L12,15.2562063 L17.078,8 L12,8 C11.4871642,8 11.0644928,7.61395981 11.0067277,7.11662113 L11,7 C11,6.48716416 11.3860402,6.06449284 11.8833789,6.00672773 L12,5.99991414 L19,5.99991414 C19.7704981,5.99991414 20.2372594,6.82601802 19.8791932,7.47721851 L19.8192319,7.57346234 L13.6384638,16.403131 C13.0050348,17.3080296 11.7579739,17.5280992 10.8530753,16.8946702 C10.7096133,16.7942468 10.5801711,16.6755642 10.4679282,16.541802 L10.3615362,16.403131 L4.18076808,7.57346234 C3.86405357,7.12101305 3.97408836,6.49748259 4.42653766,6.18076808 Z" id="path-1"></path>
    </defs>
    <g id="Icons-/--24x24-/-Dropdown" stroke="none" stroke-width="1" fill="inherit" fill-rule="evenodd">
        <rect id="base" fill-opacity="0" fill="#FFFFFF" x="0" y="0" width="24" height="24"></rect>
        <mask id="mask-2" fill="white">
            <use xlink:href="#path-1"></use>
        </mask>
        <g id="Mask" fill-rule="nonzero"></g>
        <rect fill="inherit" mask="url(#mask-2)" x="0" y="0" width="24" height="24"></rect>
    </g>
</svg>