<?xml version="1.0" encoding="UTF-8"?>
<svg class="customer-ui__icon" fill="#000000" width="24px" height="24px" viewBox="0 0 24 24" version="1.1"
    xmlns="http://www.w3.org/2000/svg" xmlns:xlink="http://www.w3.org/1999/xlink">
    <title>Edit</title>
    <switch>
        <g>
            <path fill="inherit"
                d="M14.3 2.3c.4-.4.9-.4 1.3-.1l.1.1 5 5c.4.4.4.9.1 1.3l-.1.1-9 9c-.4.4-.9.4-1.3.1l-.1-.1-2.4-2.6c-.4-.4-.4-1 0-1.4.4-.3.9-.4 1.3 0l.1.1 1.7 1.8L18.6 8 15 4.4l-8.1 8.1-2.2 5.9 2.1-.6c.5-.1 1 .1 1.2.6v.1c.1.5-.1 1-.6 1.2h-.1l-4 1.1c-.5.2-1.1-.2-1.2-.7 0-.2-.1-.4 0-.5v-.1l3-8c0-.1.1-.2.2-.3l.1-.1 8.9-8.8z" />
        </g>
    </switch>
</svg>