<svg class="prefix__customer-ui__icon" width="24" height="24" xmlns="http://www.w3.org/2000/svg" xmlns:xlink="http://www.w3.org/1999/xlink"><defs><path d="M12 5a1 1 0 01.117 1.993L12 7H5a1 1 0 00-.993.883L4 8v8a1 1 0 00.883.993L5 17h14a1 1 0 00.993-.878l.007-.115-.053-7.922-7.33 5.76a1 1 0 01-1.063.108l-.112-.064-5.378-3.614a1 1 0 011.014-1.72l.1.06 4.776 3.208 6.758-5.31a2 2 0 012.701.212l.107.124a2 2 0 01.42 1.057l.007.166L22 16a3 3 0 01-2.824 2.995L19 19H5a3 3 0 01-2.995-2.824L2 16V8a3 3 0 012.824-2.995L5 5h7z" id="prefix__a"/></defs><g fill-rule="evenodd"><path fill="none" d="M0 0h24v24H0z"/><mask id="prefix__b" fill="#fff"><use xlink:href="#prefix__a"/></mask><use fill="inherit" fill-rule="nonzero" xlink:href="#prefix__a"/><path fill="inherit" mask="url(#prefix__b)" d="M0 0h24v24H0z"/></g></svg>