<svg xmlns="http://www.w3.org/2000/svg" xmlns:xlink="http://www.w3.org/1999/xlink" width="24" height="24" viewBox="0 0 24 24" fill="#000000" class="customer-ui__icon">
  <defs>
    <path id="hide-a" d="M7.33831606,2.38457488 L7.40462143,2.48074841 L8.83310594,4.83176565 C9.80678494,4.51095729 10.8619542,4.34 12,4.34 C15.2757685,4.34 17.8648818,5.75642806 19.8004017,8.08593377 C20.4683523,8.88984939 21.0099264,9.7475001 21.4379241,10.6060318 L21.615458,10.9757819 L21.7591583,11.3003741 L21.8700013,11.5749405 C21.9015813,11.6575842 21.9278477,11.7310789 21.9489633,11.7946134 C22.1231465,12.3187113 21.8394846,12.8847801 21.3153866,13.0589633 C20.7912887,13.2331465 20.2252199,12.9494846 20.0510367,12.4253866 L19.9945922,12.2698666 L19.9090546,12.0601533 L19.7937522,11.8012957 L19.6480134,11.4983432 C19.2849955,10.7701562 18.8246165,10.0410881 18.2620983,9.36406623 C16.6819932,7.46232194 14.6304815,6.34 12,6.34 C11.2573433,6.34 10.5608356,6.42945881 9.90805618,6.60065984 L10.8821995,8.20422547 C11.2375429,8.10375887 11.6124934,8.05 12,8.05 C13.0873876,8.05 14.1302387,8.48196305 14.8991378,9.2508622 C15.668037,10.0197613 16.1,11.0626124 16.1,12.15 C16.1,13.2366823 15.6772369,14.2246229 14.9872103,14.9583223 L16.087721,16.7718776 C17.0045529,16.2315108 17.8163979,15.5066726 18.4650402,14.6266706 C18.792727,14.1821036 19.4187623,14.0873534 19.8633294,14.4150402 C20.3078964,14.742727 20.4026466,15.3687623 20.0749598,15.8133294 C19.2696474,16.9058829 18.263086,17.8070989 17.1267939,18.4810916 L18.3046214,20.4207484 C18.5913962,20.8927428 18.441246,21.5078467 17.9692516,21.7946214 C17.5309711,22.0609123 16.9692951,21.9504668 16.6616839,21.5554251 L16.5953786,21.4592516 L15.3008974,19.3287223 C14.2522303,19.6924282 13.1378484,19.8833048 12,19.8801531 C8.72423017,19.8801531 6.13511638,18.4636 4.19959663,16.1340821 C3.53164632,15.3301626 2.99007245,14.4725077 2.56207496,13.6139719 L2.38454117,13.2442201 L2.24084096,12.9196265 L2.12999806,12.6450589 C2.09841818,12.5624149 2.0721518,12.4889199 2.05103623,12.4253851 C1.98298775,12.2206337 1.98298793,11.9993647 2.05103673,11.7946134 C2.07215233,11.7310789 2.09841874,11.6575842 2.12999866,11.5749405 L2.24084166,11.3003741 L2.38454199,10.9757819 L2.56207591,10.6060318 C2.9900736,9.7475001 3.53164772,8.88984939 4.19959829,8.08593377 C5.01554252,7.10389956 5.94764054,6.28413353 6.99836927,5.66434591 L5.69537857,3.51925159 C5.40860384,3.04725721 5.55875403,2.43215331 6.03074841,2.14537857 C6.4690289,1.87908775 7.03070486,1.98953321 7.33831606,2.38457488 Z M5.73790171,9.36406623 C5.17538353,10.0410881 4.71500452,10.7701562 4.35198659,11.4983432 L4.2062478,11.8012957 L4.069,12.11 L4.14483481,12.2834528 L4.27527154,12.5649907 L4.35198754,12.7216643 C4.71500568,13.4498556 5.17538493,14.1789279 5.73790337,14.8559537 C7.31800862,16.7577082 9.36951983,17.8800358 12.0028055,17.8800398 C12.765649,17.8821799 13.5151302,17.7754912 14.2314697,17.5699311 L13.3019198,16.0389758 C12.8928795,16.1758513 12.4550989,16.25 12,16.25 C9.73563253,16.25 7.9,14.4143675 7.9,12.15 C7.9,10.9936732 8.37868865,9.94915008 9.14871169,9.20378495 L8.03797462,7.37526821 C7.17903284,7.87700898 6.41516517,8.54894202 5.73790171,9.36406623 Z M10.241251,11.0020387 C10.0254587,11.3319733 9.9,11.7263354 9.9,12.15 C9.9,13.309798 10.840202,14.25 12,14.25 C12.0705283,14.25 12.1402445,14.2465232 12.2089866,14.2397316 Z M12.003,10.0498541 L13.8657556,13.1147741 C14.0154397,12.8258904 14.1,12.4978203 14.1,12.15 C14.1,11.5930454 13.8787506,11.0589022 13.4849242,10.6650758 C13.0910978,10.2712494 12.5569546,10.05 12,10.05 L12.003,10.0498541 Z"></path>
  </defs>
  <use fill="inherit" xlink:href="#hide-a"></use>
</svg>
