<svg width="24" height="24" class="customer-ui__icon" xmlns="http://www.w3.org/2000/svg"
  xmlns:xlink="http://www.w3.org/1999/xlink">
  <title>Income Protector</title>
  <path
    d="M15.9998 6.80117C13.3998 5.70117 10.5998 5.80117 8.1998 7.10117C7.4998 7.40117 6.9998 8.20117 6.8998 9.00117V12.5012L6.7998 16.5012C6.7998 16.8012 6.8998 17.1012 7.1998 17.3012C8.6998 18.4012 10.2998 18.6012 12.3998 18.7012C15.0998 18.7012 17.8998 18.0012 17.8998 16.1012V12.5012C17.8998 12.5012 17.8998 9.70117 17.8998 9.10117C17.8998 8.50117 17.6998 7.50117 15.9998 6.80117ZM9.8998 8.50117C11.5998 7.90117 13.4998 7.90117 15.1998 8.60117C15.3998 8.70117 15.6998 8.80117 15.8998 9.00117C14.8998 9.60117 13.6998 9.90117 12.4998 9.80117C11.9998 9.80117 11.4998 9.80117 10.9998 9.70117C10.3998 9.60117 9.8998 10.0012 9.7998 10.5012C9.6998 11.0012 10.0998 11.6012 10.5998 11.6012C11.1998 11.7012 11.7998 11.7012 12.3998 11.7012C13.5998 11.7012 14.7998 11.5012 15.8998 11.1012V12.4012C15.6998 12.7012 14.4998 13.3012 12.3998 13.3012C11.1998 13.4012 9.8998 13.1012 8.8998 12.5012V9.10117C9.1998 8.80117 9.4998 8.70117 9.8998 8.50117ZM15.8998 16.1012C13.6998 17.4012 9.9998 16.9012 8.8998 16.1012V14.8012C11.1998 15.6012 13.6998 15.5012 15.8998 14.7012V16.1012Z"
    fill="inherit" />
  <path
    d="M12.4 2C6.7 2 2 6.7 2 12.4C2 18.1 6.7 22.8 12.4 22.8C18.1 22.8 22.8 18.2 22.8 12.4C22.8 6.7 18.1 2 12.4 2ZM12.4 20.8C7.8 20.8 4 17 4 12.4C4 7.8 7.8 4 12.4 4C17 4 20.8 7.8 20.8 12.4C20.8 17 17 20.8 12.4 20.8Z"
    fill="inherit" />
</svg>
