<svg width="24" height="24" class="customer-ui__icon" xmlns="http://www.w3.org/2000/svg">
  <title>Information Outlined</title>
  <path d="M12 0c6.627 0 12 5.373 12 12s-5.373 12-12 12S0 18.627 0 12 5.373 0 12 0zm0 2C6.477 2 2 6.477 2 12s4.477 10 10 10 10-4.477 10-10S17.523 2 12 2zm0 7.009a1 1 0 01.993.883l.007.117v6.012a.98.98 0 00.865.973l.125.006a1 1 0 01.137 1.992l-.148.008a2.98 2.98 0 01-2.974-2.804L11 16.02l-.001-5.013h-.996a1 1 0 01-.993-.883l-.007-.116a1 1 0 01.884-.994l.116-.006H12zM12 5a1 1 0 110 2 1 1 0 010-2z" fill="inherit" fill-rule="nonzero" />
</svg>
