<?xml version="1.0" encoding="UTF-8"?>
<svg width="24px" height="24px" class="customer-ui__icon" fill="#000000" viewBox="0 0 24 24" version="1.1" xmlns="http://www.w3.org/2000/svg" xmlns:xlink="http://www.w3.org/1999/xlink">
    <title>Login</title>
    <path d="M18.8203428,2 C20.4713529,2 21.8827874,3.12359033 21.9814983,4.63097141 L21.9870095,4.8 L21.9870095,19.2 C21.9870095,20.7347952 20.6345396,21.9131997 19.002748,21.9954138 L18.8203428,22 L10.1536762,22 C8.50266604,22 7.09123155,20.8764097 6.99252068,19.3690286 L6.98700948,19.2 L6.98700948,16.4913856 C6.98700948,15.9391008 7.43472473,15.4913856 7.98700948,15.4913856 C8.49984532,15.4913856 8.92251665,15.8774257 8.98028175,16.3747644 L8.98700948,16.4913856 L8.98700948,19.2 C8.98700948,19.5682581 9.40570818,19.9424042 10.0108293,19.9939748 L10.1536762,20 L18.8203428,20 C19.4527699,20 19.9166419,19.652158 19.9796827,19.2849376 L19.9870095,19.2 L19.9870095,4.8 C19.9870095,4.43174192 19.5683108,4.05759578 18.9631897,4.0060252 L18.8203428,4 L10.1536762,4 C9.5212491,4 9.05737705,4.34784199 8.99433628,4.71506235 L8.98700948,4.8 L8.98700948,7.47414551 C8.98700948,8.02643026 8.53929423,8.47414551 7.98700948,8.47414551 C7.47417365,8.47414551 7.05150232,8.08810532 6.99373722,7.59076663 L6.98700948,7.47414551 L6.98700948,4.8 C6.98700948,3.26520479 8.33947933,2.08680034 9.97127101,2.00458624 L10.1536762,2 L18.8203428,2 Z M12.6051967,6.21426804 L12.6897822,6.2903643 L17.6897822,11.2885554 C18.0503314,11.6489741 18.0781636,12.2162002 17.7732096,12.6085466 L17.690038,12.7027689 L12.690038,17.7045779 C12.2995844,18.0951728 11.6664194,18.0952873 11.2758245,17.7048337 C10.9152754,17.3444149 10.8874432,16.7771889 11.1923972,16.3848425 L11.2755687,16.2906201 L15.568,11.996 L12.982,9.411 L12.9828034,10.9936604 C12.9828034,12.0486909 12.16736,12.9138268 11.132125,12.9902957 L10.9828034,12.9957901 L3,12.9957901 C2.44771525,12.9957901 2,12.5480748 2,11.9957901 C2,11.4829542 2.38604019,11.0602829 2.88337887,11.0025178 L3,10.9957901 L10.9828034,10.9957901 L10.9828034,6.997599 C10.9828034,6.14551259 11.9681521,5.70021612 12.6051967,6.21426804 Z" id="path-1" fill="inherit"></path>
</svg>
