<?xml version="1.0" encoding="UTF-8"?>
<svg width="24px" height="24px" viewBox="0 0 24 24" version="1.1" class="customer-ui__icon" fill="#000000" xmlns="http://www.w3.org/2000/svg" xmlns:xlink="http://www.w3.org/1999/xlink">
    <title>Logout</title>
    <path d="M10.5,2 L10.6628445,2.00566321 C12.0062401,2.09954296 13,3.34790468 13,4.8 L13,4.8 L13,7.47414551 L12.9932723,7.59076663 C12.9355072,8.08810532 12.5128358,8.47414551 12,8.47414551 C11.4477153,8.47414551 11,8.02643026 11,7.47414551 L11,7.47414551 L11,4.8 L10.9935771,4.67361849 C10.9515215,4.26607771 10.7106409,4 10.5,4 L10.5,4 L4.5,4 L4.43612961,4.00785772 C4.22173143,4.05982711 4,4.36541276 4,4.8 L4,4.8 L4,19.2 L4.00642288,19.3263815 C4.04847852,19.7339223 4.28935911,20 4.5,20 L4.5,20 L10.5,20 L10.5638704,19.9921423 C10.7782686,19.9401729 11,19.6345872 11,19.2 L11,19.2 L11,16.4913856 L11.0067277,16.3747644 C11.0644928,15.8774257 11.4871642,15.4913856 12,15.4913856 C12.5522847,15.4913856 13,15.9391008 13,16.4913856 L13,16.4913856 L13,19.2 L12.9952712,19.3732127 C12.916801,20.8074881 11.8703358,22 10.5,22 L10.5,22 L4.5,22 L4.3371555,21.9943368 C2.99375992,21.900457 2,20.6520953 2,19.2 L2,19.2 L2,4.8 L2.00472882,4.62678733 C2.08319902,3.1925119 3.12966416,2 4.5,2 L4.5,2 L10.5,2 Z M16.6051967,6.21426804 L16.6897822,6.2903643 L21.6897822,11.2885554 C22.0503314,11.6489741 22.0781636,12.2162002 21.7732096,12.6085466 L21.690038,12.7027689 L16.690038,17.7045779 C16.2995844,18.0951728 15.6664194,18.0952873 15.2758245,17.7048337 C14.9152754,17.3444149 14.8874432,16.7771889 15.1923972,16.3848425 L15.2755687,16.2906201 L19.568,11.996 L16.982,9.411 L16.9828034,10.9936604 C16.9828034,12.0486909 16.16736,12.9138268 15.132125,12.9902957 L14.9828034,12.9957901 L7,12.9957901 C6.44771525,12.9957901 6,12.5480748 6,11.9957901 C6,11.4829542 6.38604019,11.0602829 6.88337887,11.0025178 L7,10.9957901 L14.9828034,10.9957901 L14.9828034,6.997599 C14.9828034,6.14551259 15.9681521,5.70021612 16.6051967,6.21426804 Z" fill="inherit"></path>
</svg>
