<?xml version="1.0" encoding="UTF-8"?>
<svg width="24px" height="24px" viewBox="0 0 24 24" version="1.1" class="customer-ui__icon" fill="#000000"
  xmlns="http://www.w3.org/2000/svg" xmlns:xlink="http://www.w3.org/1999/xlink">
  <title>More</title>
  <defs>
    <path
      d="M12,10 C13.1045695,10 14,10.8954305 14,12 C14,13.1045695 13.1045695,14 12,14 C10.8954305,14 10,13.1045695 10,12 C10,10.8954305 10.8954305,10 12,10 Z M19,10 C20.1045695,10 21,10.8954305 21,12 C21,13.1045695 20.1045695,14 19,14 C17.8954305,14 17,13.1045695 17,12 C17,10.8954305 17.8954305,10 19,10 Z M5,10 C6.1045695,10 7,10.8954305 7,12 C7,13.1045695 6.1045695,14 5,14 C3.8954305,14 3,13.1045695 3,12 C3,10.8954305 3.8954305,10 5,10 Z"
      id="path-1"></path>
  </defs>
  <g id="Icons-/-24x24-/-More" stroke="none" stroke-width="1" fill="none" fill-rule="evenodd">
    <rect id="base" fill-opacity="0" fill="#FFFFFF" x="0" y="0" width="24" height="24"></rect>
    <mask id="mask-2" fill="#FFFFFF">
      <use xlink:href="#path-1"></use>
    </mask>
    <g id="Shape"></g>
    <rect id="color" fill="inherit" mask="url(#mask-2)" x="0" y="0" width="24" height="24"></rect>
  </g>
</svg>