<?xml version="1.0" encoding="UTF-8"?>
<svg width="24px" height="24px" viewBox="0 0 24 24" version="1.1" class="customer-ui__icon" fill="#000000" xmlns="http://www.w3.org/2000/svg" xmlns:xlink="http://www.w3.org/1999/xlink">
  <title>PDF</title>
  <path fill-rule="evenodd" clip-rule="evenodd" d="M14.722 0c.915 0 1.674.806 1.743 1.85l.004.15v8.012c0 .529-.361.965-.822.996-.462.03-.864-.355-.918-.88l-.007-.116V2H5.114v8.012c0 .529-.361.965-.822.996-.462.03-.864-.355-.918-.88l-.007-.116V2c0-1.047.705-1.917 1.616-1.995L5.114 0h9.608ZM1.672 19.997c.461-.03.821-.468.822-.997v-5h1.747l.102.007c.459.063.796.523.769 1.052-.027.528-.409.94-.871.941l-.102.007c-.46.063-.796.523-.77 1.052.028.528.41.94.872.941 1.447 0 2.62-1.343 2.62-3v4c0 .552.391 1 .874 1h1.747c1.93 0 3.494-1.79 3.494-4v3l.006.117c.051.503.424.883.867.883l.102-.007c.44-.06.771-.486.771-.993v-2h2.62l.103-.007c.459-.063.796-.523.769-1.052-.027-.528-.409-.94-.871-.941h-2.62v-1h2.564l.102-.007c.459-.063.796-.523.769-1.052-.027-.528-.409-.94-.871-.941h-3.438l-.102.007c-.44.06-.771.486-.771.993v3c0-2.21-1.565-4-3.494-4H7.735c-.483 0-.874.448-.874 1v2c0-1.657-1.173-3-2.62-3H1.62l-.103.007c-.44.06-.77.486-.77.993v6l.005.117c.055.525.457.911.919.88ZM8.608 18h.874c.964 0 1.747-.895 1.747-2s-.783-2-1.747-2h-.874v4Zm5.239-14.059c-.027-.528-.41-.94-.871-.941H6.86l-.102.007c-.459.062-.796.523-.769 1.052.027.528.41.94.871.941h6.115l.102-.007c.459-.062.796-.523.769-1.052Zm0 3c-.027-.528-.41-.94-.871-.941H6.86l-.102.007c-.459.062-.796.523-.769 1.052.027.528.41.94.871.941h6.115l.102-.007c.459-.062.796-.523.769-1.052ZM9.482 9c.462 0 .844.413.87.941.028.529-.31.99-.768 1.052L9.482 11h-2.62c-.463 0-.845-.413-.872-.941-.027-.529.31-.99.77-1.052L6.86 9h2.62Z" fill="inherit"/>
</svg>
