<svg class="customer-ui__icon" width="24" height="24" xmlns="http://www.w3.org/2000/svg">
  <title>Pound</title>
  <path d="M4.58 13.176v-2.179h12.49v2.18H4.58zM7.478 21c-.986 0-1.816-.224-2.493-.67C4.328 19.881 4 19.24 4 18.4c0-.558.164-1.024.493-1.397.328-.39.773-.689 1.333-.894.56-.205 1.188-.307 1.884-.307.83 0 1.545.065 2.144.196.6.13 1.12.298 1.565.502.464.187.889.382 1.275.587.387.205.783.373 1.189.503.425.13.908.196 1.449.196.657 0 1.14-.186 1.449-.56.309-.372.454-.958.434-1.76l3.13.336c.116 1.043.02 1.956-.29 2.738a3.862 3.862 0 01-1.477 1.816c-.657.429-1.44.643-2.348.643-.811 0-1.536-.112-2.174-.335a9.27 9.27 0 01-1.738-.839c-.522-.335-1.034-.67-1.536-1.005a7.634 7.634 0 00-1.507-.867 4.018 4.018 0 00-1.652-.335c-.387 0-.686.065-.899.196-.193.13-.29.326-.29.586 0 .261.107.466.32.615.231.13.511.196.84.196.502 0 .888-.112 1.159-.336.27-.223.454-.558.55-1.005.116-.447.174-.988.174-1.621 0-.801-.144-1.527-.434-2.18-.29-.67-.754-1.471-1.391-2.402a22.838 22.838 0 01-.928-1.593 5.974 5.974 0 01-.492-1.341 5.952 5.952 0 01-.145-1.313c0-1.025.28-1.947.84-2.767.56-.82 1.353-1.462 2.377-1.928 1.043-.484 2.27-.726 3.68-.726 1.816 0 3.285.41 4.405 1.23 1.14.8 1.894 2.02 2.26 3.66l-3.97 1.48c-.231-1.005-.58-1.741-1.043-2.207-.444-.484-1.063-.726-1.855-.726-.734 0-1.343.195-1.825.587-.464.39-.696.94-.696 1.648 0 .26.039.53.116.81.077.261.203.568.377.922.174.354.396.792.666 1.314.425.726.763 1.471 1.014 2.235.271.745.406 1.462.406 2.151 0 .727-.116 1.444-.348 2.152a5.982 5.982 0 01-.985 1.9 4.885 4.885 0 01-1.68 1.341c-.658.335-1.44.503-2.348.503z" fill="inherit" />
</svg>
