<svg width="24" height="24" class="customer-ui__icon" xmlns="http://www.w3.org/2000/svg"
  xmlns:xlink="http://www.w3.org/1999/xlink">
  <title>Question Mark</title>
  <path
    d="M12 0C18.6274 0 24 5.37258 24 12C24 18.6274 18.6274 24 12 24C5.37258 24 0 18.6274 0 12C0 5.37258 5.37258 0 12 0ZM12 2C6.47715 2 2 6.47715 2 12C2 17.5228 6.47715 22 12 22C17.5228 22 22 17.5228 22 12C22 6.47715 17.5228 2 12 2ZM12 17C12.552 17 13 17.448 13 18C13 18.552 12.552 19 12 19C11.448 19 11 18.552 11 18C11 17.448 11.448 17 12 17ZM12 5C14.4853 5 16.5 7.01472 16.5 9.5C16.5 11.6412 15.0045 13.4332 13.001 13.8883L13 14C13 14.5523 12.5523 15 12 15C11.4872 15 11.0645 14.614 11.0067 14.1166L11 14V13C11 12.4477 11.4477 12 12 12C13.3807 12 14.5 10.8807 14.5 9.5C14.5 8.11929 13.3807 7 12 7C10.6193 7 9.5 8.11929 9.5 9.5C9.5 10.0523 9.05229 10.5 8.5 10.5C7.94772 10.5 7.5 10.0523 7.5 9.5C7.5 7.01472 9.51472 5 12 5Z"
    fill="inherit" />
</svg>
