<?xml version="1.0" encoding="UTF-8"?>
<svg width="24px" height="24px" class="customer-ui__icon" fill="#000000" viewBox="0 0 24 24" version="1.1" xmlns="http://www.w3.org/2000/svg" xmlns:xlink="http://www.w3.org/1999/xlink">
  <title>Save</title>
  <rect width="24" height="24" fill="white" fill-opacity="0.01" />
  <path fill-rule="evenodd" clip-rule="evenodd" d="M16.5336 2.15377C15.8838 1.73845 15 2.19959 15 2.99999V7.99999L14.9933 8.11661C14.9355 8.61395 14.5128 8.99999 14 8.99999H10L9.88338 8.99326C9.38604 8.93549 9 8.51282 9 7.99999V5.99999L8.99327 5.88336C8.93551 5.38603 8.51284 4.99999 8 4.99999C7.44772 4.99999 7 5.4477 7 5.99999V7.99999L7.00509 8.17626C7.09634 9.75107 8.40232 11 10 11H14L14.1763 10.9949C15.7511 10.9036 17 9.59767 17 7.99999V5.07999L20 7.48061V17L19.9949 17.1763C19.9237 18.4055 19.1124 19.4361 18 19.8293V16L17.9949 15.8237C17.9037 14.2489 16.5977 13 15 13H9L8.82373 13.0051C7.24892 13.0963 6 14.4023 6 16V19.8293C4.83481 19.4174 4 18.3062 4 17V6.99999L4.00509 6.82371C4.09634 5.24891 5.40232 3.99999 7 3.99999H12L12.1166 3.99326C12.614 3.93549 13 3.51282 13 2.99999C13 2.4477 12.5523 1.99999 12 1.99999H7L6.78311 2.0046C4.12231 2.11817 2 4.31123 2 6.99999V17L2.00462 17.2169C2.11818 19.8777 4.31125 22 7 22H17L17.2169 21.9954C19.8777 21.8818 22 19.6887 22 17V7.48061L21.9918 7.29949C21.9428 6.76007 21.6764 6.26046 21.2494 5.91887L16.6247 2.21912L16.5336 2.15377ZM8 20H16V16C16 15.4871 15.614 15.0645 15.1166 15.0067L15 15H9C8.48716 15 8.06449 15.386 8.00673 15.8834L8 16V20Z" fill="inherit" />
  <mask id="mask0" mask-type="alpha" maskUnits="userSpaceOnUse" x="2" y="1" width="20" height="21">
    <path fill-rule="evenodd" clip-rule="evenodd" d="M16.5336 2.15377C15.8838 1.73845 15 2.19959 15 2.99999V7.99999L14.9933 8.11661C14.9355 8.61395 14.5128 8.99999 14 8.99999H10L9.88338 8.99326C9.38604 8.93549 9 8.51282 9 7.99999V5.99999L8.99327 5.88336C8.93551 5.38603 8.51284 4.99999 8 4.99999C7.44772 4.99999 7 5.4477 7 5.99999V7.99999L7.00509 8.17626C7.09634 9.75107 8.40232 11 10 11H14L14.1763 10.9949C15.7511 10.9036 17 9.59767 17 7.99999V5.07999L20 7.48061V17L19.9949 17.1763C19.9237 18.4055 19.1124 19.4361 18 19.8293V16L17.9949 15.8237C17.9037 14.2489 16.5977 13 15 13H9L8.82373 13.0051C7.24892 13.0963 6 14.4023 6 16V19.8293C4.83481 19.4174 4 18.3062 4 17V6.99999L4.00509 6.82371C4.09634 5.24891 5.40232 3.99999 7 3.99999H12L12.1166 3.99326C12.614 3.93549 13 3.51282 13 2.99999C13 2.4477 12.5523 1.99999 12 1.99999H7L6.78311 2.0046C4.12231 2.11817 2 4.31123 2 6.99999V17L2.00462 17.2169C2.11818 19.8777 4.31125 22 7 22H17L17.2169 21.9954C19.8777 21.8818 22 19.6887 22 17V7.48061L21.9918 7.29949C21.9428 6.76007 21.6764 6.26046 21.2494 5.91887L16.6247 2.21912L16.5336 2.15377ZM8 20H16V16C16 15.4871 15.614 15.0645 15.1166 15.0067L15 15H9C8.48716 15 8.06449 15.386 8.00673 15.8834L8 16V20Z" fill="white" />
  </mask>
  <g mask="url(#mask0)">
    <rect width="24" height="24" fill="inherit" />
  </g>
</svg>
