<svg class="customer-ui__icon" width="24" height="24" xmlns="http://www.w3.org/2000/svg">
  <title>Home Phone</title>
  <path d="M20.2 1C22.3 1 24 2.7 24 4.8c0 1-.4 1.9-1 2.6-.4.4-1 .4-1.4.1-.4-.3-.4-.9-.1-1.3l.1-.1c.2-.4.4-.8.4-1.3 0-1-.7-1.7-1.6-1.8H3.8C2.8 3 2 3.8 2 4.8s.7 1.7 1.6 1.8h1l.4-.1c4.5-1.2 8.9-1.3 13.2-.2l.5.1c.7.2 1.2.7 1.3 1.4V8l2 10.8v2.3c0 1-.8 1.8-1.8 1.9H3.9c-1 0-1.8-.8-1.9-1.8v-2.4l1.4-8c.1-.5.6-.9 1.1-.8.5.1.9.5.8 1v.1l-1.3 8V21h16v-1.9L18.1 8.4l-.5-.1c-4-1-8-1-12.1.1l-.5.2H3.7C1.7 8.6 0 6.9 0 4.8c0-2 1.6-3.7 3.6-3.8h16.6ZM12 9c2.7 0 5 1.7 5 4s-2.3 4-5 4-5-1.7-5-4 2.3-4 5-4Zm0 2c-1.7 0-3 1-3 2s1.3 2 3 2 3-1 3-2-1.3-2-3-2Z" fill="inherit"/>
</svg>
