<?xml version="1.0" encoding="UTF-8"?>
<svg class="customer-ui__icon" width="24px" height="24px" fill="#000000" viewBox="0 0 24 24" version="1.1" xmlns="http://www.w3.org/2000/svg" xmlns:xlink="http://www.w3.org/1999/xlink">
    <title>Mobile</title>
    <path d="M17.6644516,0 L17.8246778,0.005443805 C18.9892876,0.084853044 19.9162241,1.02346718 19.9946257,2.19223005 L20,2.35297427 L20,21.6470257 L19.994626,21.8077868 C19.9162274,22.9766629 18.9893258,23.9151582 17.8246828,23.9945569 L17.6644516,24 L7.99576093,24 L7.8791398,23.9932723 C7.38180112,23.9355072 6.99576093,23.5128358 6.99576093,23 C6.99576093,22.4871642 7.38180112,22.0644928 7.8791398,22.0067277 L7.99576093,22 L17.6644516,22 L17.7312149,21.9929439 C17.8610447,21.9651599 17.9657839,21.8579858 17.9930598,21.7189681 L18,21.6470257 L18,18 L6,18 L6,20 L5.99327227,20.1166211 C5.93550716,20.6139598 5.51283584,21 5,21 C4.48716416,21 4.06449284,20.6139598 4.00672773,20.1166211 L4,20 L4,2.35297427 L4.00537379,2.19221891 C4.08376887,1.02338145 5.01063508,0.0848456105 6.17547979,0.00544332066 L6.33573999,0 L17.6644516,0 Z M12,19 C12.5522847,19 13,19.4477153 13,20 C13,20.5522847 12.5522847,21 12,21 C11.4477153,21 11,20.5522847 11,20 C11,19.4477153 11.4477153,19 12,19 Z M17.6644516,2 L6.33573999,2 L6.26891109,2.00705636 C6.13896793,2.03484147 6.03421714,2.142019 6.00694025,2.28103388 L6,2.35297427 L6,16 L18,16 L18,2.35297427 L17.9930562,2.28106174 C17.965767,2.14208666 17.8609836,2.03486024 17.7311897,2.00706034 L17.6644516,2 Z M14,4 L14.1166211,4.00672773 C14.6139598,4.06449284 15,4.48716416 15,5 C15,5.51283584 14.6139598,5.93550716 14.1166211,5.99327227 L14,6 L10,6 L9.88337887,5.99327227 C9.38604019,5.93550716 9,5.51283584 9,5 C9,4.48716416 9.38604019,4.06449284 9.88337887,4.00672773 L10,4 L14,4 Z" fill="inherit"></path>
</svg>
