<?xml version="1.0" encoding="UTF-8"?>
<svg class="customer-ui__icon" width="24px" height="24px" fill="#000000" viewBox="0 0 24 24" version="1.1" xmlns="http://www.w3.org/2000/svg" xmlns:xlink="http://www.w3.org/1999/xlink">
    <title>Energy</title>
    <path d="M20.7892566,-0.000222349967 C21.5983502,-0.000222349967 22.0572011,0.900604834 21.6255531,1.54903693 L21.5577729,1.63983015 L16.157,8.125 L21,8.1254969 C21.9012102,8.1254969 22.3249031,9.20932703 21.717423,9.82297875 L21.6322931,9.90022614 L4.63229313,23.7747292 C3.82463146,24.4339001 2.70136707,23.5764617 3.06279635,22.6489576 L3.10728415,22.54938 L7.39,14.065 L4.04869375,14.0652273 C3.34621161,14.0652273 2.87521052,13.3663109 3.10711635,12.7276157 L3.15235655,12.6218543 L9.12041861,0.556626998 C9.36528675,0.0615936304 9.96509544,-0.14120535 10.4601288,0.103662797 C10.9198027,0.331040362 11.1274989,0.864463599 10.9587694,1.33585825 L10.913093,1.443373 L5.659,12.065 L9.01481805,12.0652273 C9.72065359,12.0652273 10.1916586,12.770222 9.95381857,13.4099605 L9.9075339,13.5158473 L7.012,19.25 L18.192,10.125 L14.0243543,10.1254969 C13.2152608,10.1254969 12.7564099,9.22489206 13.1880579,8.57645996 L13.255838,8.48566674 L18.655,2 L16.0685985,2 C15.5557627,2 15.1330913,1.61395981 15.0753262,1.11662113 L15.0685985,1 C15.0685985,0.487164161 15.4546387,0.0644928393 15.9519774,0.00672773133 L16.0685985,-0.000222349967 L20.7892566,-0.000222349967 Z" fill="inherit"></path>
</svg>
