<svg class="customer-ui__icon" width="24" height="24" xmlns="http://www.w3.org/2000/svg"><path d="M5.026 8.658l.011-.314.029-.39c.013-.134.028-.268.047-.401l.065-.402a9.076 9.076 0 012.473-4.752 8.924 8.924 0 014.08-2.366A1 1 0 0112.96 1.23a7.209 7.209 0 00-.195 1.66c0 1.777.67 3.234 2.23 5.174l.23.28c1.813 2.19 2.775 4.22 2.775 6.559C18 19.924 13.973 24 9 24s-9-4.076-9-9.097a9.12 9.12 0 011.456-4.96 1 1 0 011.68 1.085A7.12 7.12 0 002 14.903C2 18.825 5.137 22 9 22s7-3.175 7-7.097c0-1.695-.693-3.247-2.079-4.99l-.237-.293c-1.907-2.303-2.836-4.143-2.913-6.417l-.006-.313.008-.35-.23.127a6.95 6.95 0 00-1.243.92l-.226.218a7.077 7.077 0 00-1.929 3.708c-.039.211-.068.42-.088.63l-.024.32-.007.235v.257l.004.155.023.357.033.311.084.5.125.52c.046.16.095.314.149.463a1 1 0 01-1.882.677l-.1-.293-.108-.366-.116-.47-.03-.141-.09-.517-.03-.238-.036-.36-.012-.181-.015-.42v-.294z" fill="inherit"/></svg>
