<?xml version="1.0" encoding="UTF-8"?>
<svg class="customer-ui__icon" fill="#000000" width="24px" height="24px" viewBox="0 0 24 24" version="1.1" xmlns="http://www.w3.org/2000/svg" xmlns:xlink="http://www.w3.org/1999/xlink">
    <title>Broadband</title>
    <path d="M0.286898077,6.93345036 C6.753754,0.355518454 17.2460385,0.355518454 23.7130907,6.93343892 C24.059438,7.28572388 24.0930809,7.83207755 23.8092946,8.22206627 L23.7317321,8.31610305 L20.8305675,11.4306854 C20.4423792,11.8474299 19.7850272,11.8562925 19.3857447,11.4501649 C15.5134941,7.51152984 9.4104416,7.2351344 5.22509596,10.6209785 L5.032,10.781 L6.39,12.161 L6.48028098,12.0887407 C9.85214845,9.43609215 14.6903334,9.62115746 17.8579424,12.643903 L18.0621248,12.8450618 C18.4216921,13.2107465 18.4424726,13.7822675 18.1293759,14.1717641 L18.0441488,14.2651216 L14.7882377,17.4129199 C14.3996453,17.788609 13.7828544,17.7875277 13.3955816,17.4104783 C13.0203781,17.0451796 12.5269801,16.8395862 11.9999998,16.8395862 C10.8836341,16.8395862 9.9716615,17.7671425 9.9716615,18.9196945 C9.9716615,20.0723035 10.8836913,21 11.9999998,21 C12.4367858,21 12.8507901,20.8587134 13.1941176,20.6013608 L13.3367912,20.4840342 C13.7472641,20.1145339 14.3795573,20.1477487 14.7490576,20.5582215 C15.1185579,20.9686944 15.0853431,21.6009876 14.6748703,21.9704879 C13.9436176,22.6287485 12.9992243,23 11.9999998,23 C9.77142531,23 7.9716615,21.1693202 7.9716615,18.9196945 C7.9716615,16.670087 9.77140849,14.8395862 11.9999998,14.8395862 C12.6489834,14.8395862 13.2742449,14.9961164 13.8326437,15.2853777 L14.009,15.384 L15.875,13.58 L15.8577641,13.5661637 C13.2754284,11.6304648 9.65308751,11.7963782 7.2493645,14.0638722 L7.06216981,14.247251 C6.70046861,14.6151531 6.12522842,14.6434635 5.73066342,14.3321747 L5.63601437,14.2472775 L2.88586816,11.4501913 C2.50329788,11.0610912 2.50328632,10.4371355 2.88584217,10.0480213 C7.51480561,5.33970066 14.8404623,5.03593804 19.8173861,9.13673341 L20.05,9.333 L21.594,7.676 L21.5029124,7.59383019 C15.8754222,2.64495122 7.41120125,2.80720907 1.96990303,8.08059424 L1.71310192,8.33557111 C1.32591697,8.72940642 0.692774944,8.73479761 0.298939627,8.34761266 C-0.0948956905,7.9604277 -0.100286876,7.32728568 0.286898077,6.93345036 Z" fill="inherit"></path>
</svg>
