<?xml version="1.0" encoding="UTF-8"?>
<svg class="customer-ui__icon" width="24px" height="24px" viewBox="0 0 24 24" fill="#000000" version="1.1" xmlns="http://www.w3.org/2000/svg" xmlns:xlink="http://www.w3.org/1999/xlink">
    <title>Insurance</title>
    <path d="M21.9941394,11.8469763 C21.9204005,10.889312 21.1602554,10.1481951 20.2500226,10.1481951 C19.3397898,10.1481951 18.5796448,10.889312 18.5059058,11.8469763 L18.5000453,11.9999095 C18.5000453,13.2872658 16.6355982,13.3316574 16.5070156,12.1330843 L16.4941845,11.8469737 C16.4204436,10.8892946 15.6602751,10.1481951 14.7498869,10.1481951 C13.8397566,10.1481951 13.0795193,10.8893794 13.0057708,11.8469864 L12.9999095,11.9999095 L12.9999095,20.6852403 C12.9999095,22.5159315 11.515841,24 9.68514978,24 C7.91758583,24 6.47315177,22.6165164 6.37563737,20.873339 L6.37039007,20.6852403 L6.37039007,19.3539402 C6.37039007,18.8016555 6.81810532,18.3539402 7.37039007,18.3539402 C7.88322591,18.3539402 8.30589723,18.7399804 8.36366234,19.2373191 L8.37039007,19.3539402 L8.37039007,20.6852403 C8.37039007,21.411362 8.95902804,22 9.68514978,22 C10.3658889,22 10.9257927,21.4826424 10.9931215,20.8196668 L10.9999095,20.6852403 L10.9999095,11.9999095 C10.9999095,9.88081915 12.6706948,8.14819508 14.7498869,8.14819508 C15.7896186,8.14819508 16.7271582,8.58132763 17.4047649,9.27935821 L17.5,9.382 L17.5952885,9.27937275 C18.230519,8.62496454 19.0941906,8.2033726 20.056322,8.15322989 L20.2500226,8.14819508 C20.5749166,8.14819508 20.8898333,8.19049413 21.1899588,8.26995767 L21.293,8.3 L21.2895646,8.29092539 C19.8490661,4.68641457 16.3713681,2.11628957 12.2798136,2.0038418 L11.9999095,2 C7.88790335,2 4.35557498,4.48192486 2.81924637,8.0294526 L2.706,8.3 L2.81004122,8.26995767 C3.0501416,8.20638684 3.2997084,8.16660128 3.55627679,8.15322989 L3.74997737,8.14819508 C4.78963793,8.14819508 5.72713227,8.58133733 6.40471148,9.27937275 L6.513,9.397 L6.62821008,9.27639943 C7.28171921,8.62292039 8.16892727,8.2031287 9.15364653,8.15320739 L9.35185018,8.14819508 C9.90413493,8.14819508 10.3518502,8.59591033 10.3518502,9.14819508 C10.3518502,9.70047983 9.90413493,10.1481951 9.35185018,10.1481951 C8.37791703,10.1481951 7.57937089,10.9003305 7.50552734,11.8552235 L7.49995474,11.9999095 C7.49995474,13.2872658 5.63550766,13.3316574 5.5069251,12.1330843 L5.49409415,11.8469763 C5.42035523,10.889312 4.66021018,10.1481951 3.74997737,10.1481951 C2.83974456,10.1481951 2.07959951,10.889312 2.00586059,11.8469763 L2,11.9999095 C2,13.2872658 0.135552913,13.3316574 0.00697035549,12.1330843 L0,11.9999095 L0.00379983296,11.6949373 C0.165606167,5.20851045 5.47450741,0 11.9999095,0 C18.6273004,0 24,5.37257745 24,11.9999095 C24,13.2872658 22.1355529,13.3316574 22.0069704,12.1330843 L21.9941394,11.8469763 Z" fill="inherit"></path>
</svg>
