<?xml version="1.0" encoding="UTF-8"?>
<svg width="24px" height="24px" viewBox="0 0 24 24" version="1.1" xmlns="http://www.w3.org/2000/svg" xmlns:xlink="http://www.w3.org/1999/xlink">
    <title>Settings</title>
    <defs>
        <path d="M12.0216714,2 C13.151843,2 13.7500048,2.55277709 14.7050139,3.98087332 L14.9964674,4.42365268 C15.4249462,5.07508454 15.6733031,5.37543118 15.8637291,5.48253298 C16.0480069,5.58616758 16.3429965,5.6438822 16.9512478,5.68708768 L18.0391438,5.74799867 C19.6656495,5.85248131 20.360762,6.08106434 20.8999642,6.98699443 C21.4410325,7.89597878 21.3028405,8.56470756 20.5663854,10.025371 L20.2672083,10.6038196 C19.8789261,11.3484181 19.7263307,11.7424462 19.7263307,12 C19.7263307,12.236091 19.8545533,12.5868583 20.1749998,13.2172104 L20.3397604,13.5348558 C21.2703571,15.3100947 21.4925629,16.0174513 20.8999843,17.0129718 C20.3607638,17.9189327 19.6656497,18.1475184 18.0391438,18.2520013 L16.9512482,18.3129121 C16.342998,18.3561169 16.048014,18.4138284 15.8637624,18.5174483 C15.6891747,18.6156421 15.4659369,18.8761995 15.0999053,19.4207123 L14.8510527,19.798307 C13.808491,21.3905633 13.2083516,22 12.0216714,22 C10.8914962,22 10.2933675,21.4472464 9.33835433,20.0191265 L9.04704044,19.5765551 C8.6184681,18.9249679 8.37009749,18.6245954 8.17961365,18.517467 C7.99533583,18.4138324 7.70034626,18.3561178 7.09209491,18.3129123 L6.00422517,18.2520419 C4.45543437,18.1529406 3.75406765,17.9453357 3.25646286,17.1919041 L3.1832699,17.074741 C2.70724394,16.394282 2.72734392,15.5568941 3.03335496,14.8090601 C3.24251431,14.2979135 3.82643763,14.0531045 4.3375842,14.2622638 C4.81222029,14.4564832 5.05720818,14.973841 4.92232015,15.4560108 L4.88438041,15.5664931 C4.8101107,15.7479944 4.80632317,15.9057874 4.86197922,15.9900629 C4.92972139,16.1038786 5.28337554,16.197879 6.17423088,16.2576971 L7.09247488,16.3078181 C8.12487433,16.3707805 8.614994,16.4677376 9.159993,16.7742354 C9.63777872,17.0429428 9.97693156,17.4015859 10.4302691,18.0512081 L10.8655508,18.7027297 C11.5042074,19.6781308 11.8211603,20 12.0216714,20 C12.1971261,20 12.4617429,19.7535554 12.9530043,19.0385108 L13.3255216,18.4772841 C13.9363538,17.5486136 14.3100683,17.0966676 14.8833624,16.7742283 C15.467278,16.4458445 15.9882055,16.3579985 17.1806141,16.2947825 L17.8691119,16.257697 C18.7599675,16.1978784 19.1136239,16.1038743 19.1813836,15.9900291 C19.2330129,15.9032929 19.1262421,15.5477119 18.6653471,14.6502283 L18.4938394,14.3209304 C17.9517756,13.2814289 17.7263307,12.699291 17.7263307,12 C17.7263307,11.4082923 17.8877439,10.9004633 18.2658059,10.128456 L18.7528624,9.17741936 C19.1397739,8.40607167 19.2295684,8.09092048 19.1813635,8.00993714 C19.1136213,7.89612144 18.7599672,7.80212104 17.8691119,7.7423029 L16.9508678,7.69218185 C15.9184681,7.62921933 15.4283462,7.53226094 14.8833291,7.22575295 C14.3578401,6.93020078 14.0000253,6.52581129 13.4735424,5.7451527 L13.1778219,5.29727443 C12.5391673,4.32188681 12.2221911,4 12.0216714,4 C11.8336923,4 11.5433717,4.28289284 10.981579,5.12196021 L10.7179964,5.52249279 C10.1070474,6.45135943 9.73333586,6.90331569 9.15998035,7.22577167 C8.57606471,7.55415553 8.05513718,7.64200147 6.8627286,7.70521745 L6.19983025,7.74060318 C5.47894163,7.7879361 5.10339229,7.85723516 4.94451527,7.94115606 L4.9,7.969 L4.90641474,7.98674446 L4.91436759,8.0623036 C4.9347021,8.26900138 5.00165746,8.54594942 5.11316172,8.86178589 C5.37369054,9.59973525 5.83281753,10.4372283 6.42153152,11.2052023 C7.88137324,13.1095576 9.83135256,14.2727273 12.0301361,14.2727273 C12.0783127,14.2727273 12.1256935,14.2761341 12.1720509,14.2827199 L12.0786598,14.2873099 C13.3012447,14.2873099 14.2923455,13.296209 14.2923455,12.0736242 C14.2923455,10.8510393 13.3012447,9.85993842 12.0786598,9.85993842 C11.3346486,9.85993842 10.6559544,10.2293488 10.2479947,10.8283257 L10.1587496,10.9705627 C9.88296979,11.4490645 9.27150375,11.6134031 8.79300199,11.3376233 C8.31450022,11.0618434 8.15016162,10.4503774 8.42594143,9.97187564 C9.17264626,8.67627836 10.5550165,7.85993842 12.0786598,7.85993842 C14.4058142,7.85993842 16.2923455,9.74646979 16.2923455,12.0736242 C16.2923455,14.4007785 14.4058142,16.2873099 12.0786598,16.2873099 C12.0193119,16.2873099 11.9611714,16.28214 11.9046643,16.2722258 L12.0301361,16.2727273 C9.14213313,16.2727273 6.64371408,14.7824113 4.83425281,12.4219793 C3.31752461,10.443416 2.48672241,8.09016403 3.14335848,6.98702818 C3.70825614,6.03792628 4.44424789,5.8322475 6.24297664,5.73385706 L6.91828914,5.69853488 C7.64579656,5.65399641 7.97858149,5.59558992 8.179601,5.48254009 C8.33834808,5.3932605 8.53728551,5.16978858 8.84720475,4.72070202 L9.1923146,4.20169707 C10.2348848,2.6094109 10.8349875,2 12.0216714,2 Z" id="path-1"></path>
    </defs>
    <g id="Icons-/-24x24-/-Settings" stroke="none" stroke-width="1" fill="none" fill-rule="evenodd">
        <rect id="base" fill-opacity="0" fill="#FFFFFF" x="0" y="0" width="24" height="24"></rect>
        <mask id="mask-2" fill="white">
            <use xlink:href="#path-1"></use>
        </mask>
        <use class="customer-ui__icon-color" fill="#000000" fill-rule="nonzero" xlink:href="#path-1"></use>
        <rect class="customer-ui__icon-color" fill="#000000" mask="url(#mask-2)" x="0" y="0" width="24" height="24"></rect>
    </g>
</svg>