<svg xmlns="http://www.w3.org/2000/svg" xmlns:xlink="http://www.w3.org/1999/xlink" width="24" height="24" viewBox="0 0 24 24" fill="#000000" class="customer-ui__icon">
  <path id="show-a" d="M12,4 C15.2757685,4 17.8648818,5.41642806 19.8004017,7.74593377 C20.4683523,8.54984939 21.0099264,9.4075001 21.4379241,10.2660318 L21.615458,10.6357819 L21.7591583,10.9603741 L21.8700013,11.2349405 C21.9015813,11.3175842 21.9278477,11.3910789 21.9489633,11.4546134 C22.1231465,11.9787113 21.8394846,12.5447801 21.3153866,12.7189633 C20.7912887,12.8931465 20.2252199,12.6094846 20.0510367,12.0853866 L19.9945922,11.9298666 L19.9090546,11.7201533 L19.7937522,11.4612957 L19.6480134,11.1583432 C19.2849955,10.4301562 18.8246165,9.70108811 18.2620983,9.02406623 C16.6819932,7.12232194 14.6304815,6 12,6 C9.3695185,6 7.31800682,7.12232194 5.73790171,9.02406623 C5.17538353,9.70108811 4.71500452,10.4301562 4.35198659,11.1583432 L4.2062478,11.4612957 L4.069,11.77 L4.14483481,11.9434528 L4.27527154,12.2249907 L4.35198754,12.3816643 C4.71500568,13.1098556 5.17538493,13.8389279 5.73790337,14.5159537 C7.31800862,16.4177082 9.36951983,17.5400358 12.0028055,17.5400398 C14.552225,17.5471922 16.9524016,16.3388416 18.4650402,14.2866706 C18.792727,13.8421036 19.4187623,13.7473534 19.8633294,14.0750402 C20.3078964,14.402727 20.4026466,15.0287623 20.0749598,15.4733294 C18.1841643,18.0385393 15.1839538,19.5489724 12,19.5401531 C8.72423017,19.5401531 6.13511638,18.1236 4.19959663,15.7940821 C3.53164632,14.9901626 2.99007245,14.1325077 2.56207496,13.2739719 L2.38454117,12.9042201 L2.24084096,12.5796265 L2.12999806,12.3050589 C2.09841818,12.2224149 2.0721518,12.1489199 2.05103623,12.0853851 C1.98298775,11.8806337 1.98298793,11.6593647 2.05103673,11.4546134 C2.07215233,11.3910789 2.09841874,11.3175842 2.12999866,11.2349405 L2.24084166,10.9603741 L2.38454199,10.6357819 L2.56207591,10.2660318 C2.9900736,9.4075001 3.53164772,8.54984939 4.19959829,7.74593377 C6.13511818,5.41642806 8.7242315,4 12,4 Z M12,7.71 C13.0873876,7.71 14.1302387,8.14196305 14.8991378,8.9108622 C15.668037,9.67976135 16.1,10.7226124 16.1,11.81 C16.1,14.0743675 14.2643675,15.91 12,15.91 C9.73563253,15.91 7.9,14.0743675 7.9,11.81 C7.9,9.54563253 9.73563253,7.71 12,7.71 Z M12,9.71 C10.840202,9.71 9.9,10.650202 9.9,11.81 C9.9,12.969798 10.840202,13.91 12,13.91 C13.159798,13.91 14.1,12.969798 14.1,11.81 C14.1,11.2530454 13.8787506,10.7189022 13.4849242,10.3250758 C13.0910978,9.93124936 12.5569546,9.71 12,9.71 Z" fill="inherit" />
</svg>
