<?xml version="1.0" encoding="UTF-8"?>
<svg width="24px" height="24px" viewBox="0 0 24 24" class="customer-ui__icon" fill="#000000" version="1.1" xmlns="http://www.w3.org/2000/svg" xmlns:xlink="http://www.w3.org/1999/xlink">
    <title>Outline of a checkmark inside a circle</title>
    <path d="M12,0 C18.627417,0 24,5.372583 24,12 C24,18.627417 18.627417,24 12,24 C5.372583,24 0,18.627417 0,12 C0,5.372583 5.372583,0 12,0 Z M12,2 C6.4771525,2 2,6.4771525 2,12 C2,17.5228475 6.4771525,22 12,22 C17.5228475,22 22,17.5228475 22,12 C22,6.4771525 17.5228475,2 12,2 Z M17.7094815,8.29527593 C18.0687507,8.65697052 18.094572,9.22429165 17.7882291,9.61555453 L17.7047241,9.70948149 L10.6574688,16.7094815 C10.301821,17.0627445 9.74592753,17.094404 9.35440778,16.8013657 L9.2601633,16.7213397 L6.30741862,13.886315 C5.90903368,13.5038129 5.89615812,12.8707789 6.27866026,12.4723939 C6.63173915,12.104654 7.19828903,12.0653954 7.59670187,12.3623799 L7.69258138,12.4436355 L9.941,14.602 L16.2952759,8.29051851 C16.6871117,7.90131015 17.3202731,7.90344012 17.7094815,8.29527593 Z" fill="inherit"></path>
</svg>
