<?xml version="1.0" encoding="UTF-8"?>
<svg width="24px" height="24px" viewBox="0 0 24 24" class="customer-ui__icon" fill="#000000" version="1.1" xmlns="http://www.w3.org/2000/svg" xmlns:xlink="http://www.w3.org/1999/xlink">
    <title>Outline of a person</title>
    <g id="Icons-/-24x24-/-User-Outlined" stroke="none" stroke-width="1" fill="inherit" fill-rule="evenodd">
        <rect id="base" fill-opacity="0" fill="#FFFFFF" x="0" y="0" width="24" height="24"></rect>
        <path d="M12,0 C18.627417,0 24,5.372583 24,12 C24,18.627417 18.627417,24 12,24 C5.372583,24 0,18.627417 0,12 C0,5.372583 5.372583,0 12,0 Z M12,2 C6.4771525,2 2,6.4771525 2,12 C2,17.5228475 6.4771525,22 12,22 C17.5228475,22 22,17.5228475 22,12 C22,6.4771525 17.5228475,2 12,2 Z M12,13 C14.6530216,13 17.088264,14.3020536 18.5735952,16.4395352 C18.8887548,16.893069 18.7765803,17.5162181 18.3230466,17.8313777 C17.8695128,18.1465373 17.2463637,18.0343629 16.9312041,17.5808291 C15.8158068,15.9757047 13.9909376,15 12,15 C10.4100111,15 8.92037092,15.6198618 7.80604746,16.7092196 C7.53636547,16.9728596 7.29186156,17.2612506 7.07609976,17.5703422 C6.75997773,18.0232056 6.13659182,18.1340564 5.68372837,17.8179344 C5.23086492,17.5018124 5.1200141,16.8784265 5.43613613,16.425563 C5.72348602,16.0139173 6.04897916,15.6299999 6.40794531,15.2790761 C7.89228353,13.8279935 9.88210185,13 12,13 Z M12,4 C14.209139,4 16,5.790861 16,8 C16,10.209139 14.209139,12 12,12 C9.790861,12 8,10.209139 8,8 C8,5.790861 9.790861,4 12,4 Z M12,6 C10.8954305,6 10,6.8954305 10,8 C10,9.1045695 10.8954305,10 12,10 C13.1045695,10 14,9.1045695 14,8 C14,6.8954305 13.1045695,6 12,6 Z" fill="inherit" fill-rule="nonzero"></path>
    </g>
</svg>