<?xml version="1.0" encoding="UTF-8"?>
<svg fill="#000000" class="customer-ui__icon" width="48px" height="48px" stroke-width="0" xmlns="http://www.w3.org/2000/svg" viewBox="0 0 48 48">
  <path fill="inherit" d="M24 23c-.6 0-1-.4-1-1s.4-1 1-1c3.9 0 7-3.2 7-7s-3.2-7-7-7c-3.9 0-7 3.2-7 7 0 1.7.6 3.4 1.8 4.7.4.4.3 1-.1 1.4-.4.4-1 .3-1.4-.1-1.5-1.7-2.3-3.8-2.3-6 0-5 4.1-9 9-9 5 0 9 4.1 9 9s-4 9-9 9zM40.1 43.2c-.6 0-1-.4-1-1 0-8.4-6.8-15.1-15.1-15.1S8.9 33.9 8.9 42.2c0 .6-.4 1-1 1s-1-.4-1-1c0-9.5 7.7-17.1 17.1-17.1 9.5 0 17.1 7.7 17.1 17.1 0 .6-.4 1-1 1z" />
</svg>
