<svg fill="#000000" class="customer-ui__icon" xmlns="http://www.w3.org/2000/svg" viewBox="0 0 48 48">
    <switch>
        <g>
            <path fill="none" d="M0 0h48v48H0z" />
            <g fill="inherit">
                <path
                    d="M38 21c-.6 0-1 .4-1 1v17c0 1.1-.9 2-2 2H13c-1.1 0-2-.9-2-2V9c0-1.1.9-2 2-2h13.6l9 9H30c-1.1 0-2-.9-2-2v-3c0-.6-.4-1-1-1s-1 .4-1 1v3c0 2.2 1.8 4 4 4h6.8c.4 0 .8-.2 1.1-.4s.4-.7.4-1.1-.2-.8-.4-1.1L28 5.6c-.4-.4-.9-.6-1.4-.6H13c-2.2 0-4 1.8-4 4v30c0 2.2 1.8 4 4 4h22c2.2 0 4-1.8 4-4V22c0-.5-.4-1-1-1z" />
                <path
                    d="M29 28c-.6 0-1 .4-1 1v9c0 .6.4 1 1 1s1-.4 1-1v-1c1.4-.2 2.7-.9 3.7-2s1.5-2.6 1.4-3.9c-.3-2.9-4.2-7.4-5.3-8.6-.4-.4-1.1-.4-1.5 0-1.2 1.3-5 5.7-5.3 8.6-.2 1.8.7 3.6 2.3 4.8.4.3 1.1.2 1.4-.2s.2-1.1-.2-1.4c-1-.8-1.7-1.9-1.5-3 .2-1.4 1.8-4 4.1-6.7 2.3 2.7 3.9 5.3 4.1 6.7.1.8-.2 1.6-.9 2.4-.6.7-1.4 1.1-2.2 1.3v-6c-.1-.6-.5-1-1.1-1z" />
            </g>
        </g>
    </switch>
</svg>