<?xml version="1.0" encoding="UTF-8"?>
<svg class="customer-ui__icon" width="48" height="48" viewBox="0 0 48 48" fill="none" xmlns="http://www.w3.org/2000/svg">
  <title>Boiler</title>
  <path d="M23.2 0C25.8 0 28 2.2 28 4.8v26.4c0 2.6-2.1 4.8-4.8 4.8H22v3c0 .6-.4 1-1 1h-4c-.6 0-1-.4-1-1v-3h-4v3c0 .6-.4 1-1 1H7c-.6 0-1-.4-1-1v-3H4.8C2.2 36 0 33.9 0 31.2V11c0-.6.4-1 1-1s1 .4 1 1v20.1c0 1.5 1.2 2.8 2.8 2.8H7c.6 0 1 .4 1 1v3h2v-3c0-.6.4-1 1-1h12.2c1.5 0 2.8-1.2 2.8-2.8V4.8c0-1.5-1.3-2.8-2.9-2.7H4.8c-.7 0-1.5.3-2 .8S2 4.1 2 4.9V6h21c.6 0 1 .4 1 1s-.4 1-1 1H1c-.5 0-1-.5-1-1V4.9c0-1.3.5-2.5 1.5-3.5C2.4.5 3.6 0 4.9 0h18.3ZM20 36h-2v2h2v-2Zm-4.3-23.8c.4-.1.8 0 1 .2.2.2.4.6.3.9-.3 1.6.2 3.2 1.6 4.9 1.5 1.8 2.2 3.3 2.2 5 0 3.8-3.1 6.9-6.9 6.9-3.8 0-6.9-3-6.9-6.8 0-.9.2-1.8.5-2.6.2-.6.8-.8 1.3-.6.5.2.7.8.6 1.5-.3.6-.4 1.2-.4 1.8 0 2.6 2.2 4.8 4.9 4.8s4.9-2.2 4.9-4.9c0-1.2-.5-2.3-1.7-3.7-1.3-1.6-2.1-3.2-2.2-4.8-1.3.8-2.9 2.5-2 5.7.1.5-.2 1.1-.7 1.2-.5.1-1.1-.2-1.2-.7-1.5-5.4 2.4-8.1 4.7-8.8Z" fill="inherit"/>
</svg>
