<?xml version="1.0" encoding="UTF-8"?>
<svg class="customer-ui__icon" width="48" height="48" viewBox="0 0 48 48" fill="#000000" xmlns="http://www.w3.org/2000/svg" xmlns:xlink="http://www.w3.org/1999/xlink">
  <path d="M39.056,4 C41.7102632,4 43.8829114,6.10279917 43.9954231,8.72987604 L44,8.944 L44,13 C44,13.552 43.553,14 43,14 C42.4865,14 42.064398,13.6137143 42.0067176,13.1165685 L42,13 L42,8.944 C42,7.37896429 40.7716722,6.09474235 39.2286908,6.00500843 L39.056,6 L8.944,6 C7.37896429,6 6.09474235,7.22832781 6.00500843,8.77130917 L6,8.944 L6,16 L43,16 C43.5135,16 43.935602,16.3862857 43.9932824,16.8834315 L44,17 L44,39.056 C44,41.7102632 41.8972008,43.8829114 39.270124,43.9954231 L39.056,44 L8.944,44 C6.28973684,44 4.11708864,41.8972008 4.00457687,39.270124 L4,39.056 L4,21.433 C4,20.88 4.447,20.433 5,20.433 C5.5135,20.433 5.93560204,20.8184235 5.99328243,21.3162467 L6,21.433 L6,39.056 C6,40.6210357 7.22832781,41.9052577 8.77130917,41.9949916 L8.944,42 L39.056,42 C40.6210357,42 41.9052577,40.7716722 41.9949916,39.2286908 L42,39.056 L42,18 L5,18 C4.4865,18 4.06439796,17.6137143 4.00671757,17.1165685 L4,17 L4,8.944 C4,6.28973684 6.10279917,4.11708864 8.72987604,4.00457687 L8.944,4 L39.056,4 Z M17,35 C17.553,35 18,35.448 18,36 C18,36.5125714 17.6145765,36.9354694 17.1167533,36.9932682 L17,37 L11,37 C10.447,37 10,36.552 10,36 C10,35.4874286 10.3854235,35.0645306 10.8832467,35.0067318 L11,35 L17,35 Z M27,35 C27.553,35 28,35.448 28,36 C28,36.5125714 27.6145765,36.9354694 27.1167533,36.9932682 L27,37 L21,37 C20.447,37 20,36.552 20,36 C20,35.4874286 20.3854235,35.0645306 20.8832467,35.0067318 L21,35 L27,35 Z M37,35 C37.553,35 38,35.448 38,36 C38,36.5125714 37.6145765,36.9354694 37.1167533,36.9932682 L37,37 L31,37 C30.447,37 30,36.552 30,36 C30,35.4874286 30.3854235,35.0645306 30.8832467,35.0067318 L31,35 L37,35 Z M17,29 C17.553,29 18,29.448 18,30 C18,30.5125714 17.6145765,30.9354694 17.1167533,30.9932682 L17,31 L11,31 C10.447,31 10,30.552 10,30 C10,29.4874286 10.3854235,29.0645306 10.8832467,29.0067318 L11,29 L17,29 Z M27,29 C27.553,29 28,29.448 28,30 C28,30.5125714 27.6145765,30.9354694 27.1167533,30.9932682 L27,31 L21,31 C20.447,31 20,30.552 20,30 C20,29.4874286 20.3854235,29.0645306 20.8832467,29.0067318 L21,29 L27,29 Z M37,29 C37.553,29 38,29.448 38,30 C38,30.5125714 37.6145765,30.9354694 37.1167533,30.9932682 L37,31 L31,31 C30.447,31 30,30.552 30,30 C30,29.4874286 30.3854235,29.0645306 30.8832467,29.0067318 L31,29 L37,29 Z M17,23 C17.553,23 18,23.448 18,24 C18,24.5125714 17.6145765,24.9354694 17.1167533,24.9932682 L17,25 L11,25 C10.447,25 10,24.552 10,24 C10,23.4874286 10.3854235,23.0645306 10.8832467,23.0067318 L11,23 L17,23 Z M27,23 C27.553,23 28,23.448 28,24 C28,24.5125714 27.6145765,24.9354694 27.1167533,24.9932682 L27,25 L21,25 C20.447,25 20,24.552 20,24 C20,23.4874286 20.3854235,23.0645306 20.8832467,23.0067318 L21,23 L27,23 Z M37,23 C37.553,23 38,23.448 38,24 C38,24.5125714 37.6145765,24.9354694 37.1167533,24.9932682 L37,25 L31,25 C30.447,25 30,24.552 30,24 C30,23.4874286 30.3854235,23.0645306 30.8832467,23.0067318 L31,23 L37,23 Z M13.5,8 C15.154,8 16.5,9.346 16.5,11 C16.5,12.654 15.154,14 13.5,14 C11.846,14 10.5,12.654 10.5,11 C10.5,9.346 11.846,8 13.5,8 Z M34.5,8 C36.154,8 37.5,9.346 37.5,11 C37.5,12.654 36.154,14 34.5,14 C32.846,14 31.5,12.654 31.5,11 C31.5,9.346 32.846,8 34.5,8 Z M13.5,10 C12.948,10 12.5,10.449 12.5,11 C12.5,11.551 12.948,12 13.5,12 C14.052,12 14.5,11.551 14.5,11 C14.5,10.449 14.052,10 13.5,10 Z M34.5,10 C33.948,10 33.5,10.449 33.5,11 C33.5,11.551 33.948,12 34.5,12 C35.052,12 35.5,11.551 35.5,11 C35.5,10.449 35.052,10 34.5,10 Z" fill="inherit"></path>
</svg>
