<?xml version="1.0" encoding="UTF-8"?>
<svg class="customer-ui__icon" width="48" height="48" viewBox="0 0 48 48" fill="#000000" xmlns="http://www.w3.org/2000/svg" xmlns:xlink="http://www.w3.org/1999/xlink">
  <mask id="mask0" mask-type="alpha" maskUnits="userSpaceOnUse" x="4" y="4" width="40" height="40">
    <path fill-rule="evenodd" clip-rule="evenodd" d="M39.056 4C41.7103 4 43.8829 6.1028 43.9954 8.72988L44 8.944V13C44 13.552 43.553 14 43 14C42.4865 14 42.0644 13.6137 42.0067 13.1166L42 13V8.944C42 7.37896 40.7717 6.09474 39.2287 6.00501L39.056 6H8.944C7.37896 6 6.09474 7.22833 6.00501 8.77131L6 8.944V16H43C43.5135 16 43.9356 16.3863 43.9933 16.8834L44 17V39.056C44 41.7103 41.8972 43.8829 39.2701 43.9954L39.056 44H8.944C6.28974 44 4.11709 41.8972 4.00458 39.2701L4 39.056V21.433C4 20.88 4.447 20.433 5 20.433C5.5135 20.433 5.9356 20.8184 5.99328 21.3162L6 21.433V39.056C6 40.621 7.22833 41.9053 8.77131 41.995L8.944 42H39.056C40.621 42 41.9053 40.7717 41.995 39.2287L42 39.056V18H5C4.4865 18 4.0644 17.6137 4.00672 17.1166L4 17V8.944C4 6.28974 6.1028 4.11709 8.72988 4.00458L8.944 4H39.056ZM17 35C17.553 35 18 35.448 18 36C18 36.5126 17.6146 36.9355 17.1168 36.9933L17 37H11C10.447 37 10 36.552 10 36C10 35.4874 10.3854 35.0645 10.8832 35.0067L11 35H17ZM27 35C27.553 35 28 35.448 28 36C28 36.5126 27.6146 36.9355 27.1168 36.9933L27 37H21C20.447 37 20 36.552 20 36C20 35.4874 20.3854 35.0645 20.8832 35.0067L21 35H27ZM37 35C37.553 35 38 35.448 38 36C38 36.5126 37.6146 36.9355 37.1168 36.9933L37 37H31C30.447 37 30 36.552 30 36C30 35.4874 30.3854 35.0645 30.8832 35.0067L31 35H37ZM17 29C17.553 29 18 29.448 18 30C18 30.5126 17.6146 30.9355 17.1168 30.9933L17 31H11C10.447 31 10 30.552 10 30C10 29.4874 10.3854 29.0645 10.8832 29.0067L11 29H17ZM27 29C27.553 29 28 29.448 28 30C28 30.5126 27.6146 30.9355 27.1168 30.9933L27 31H21C20.447 31 20 30.552 20 30C20 29.4874 20.3854 29.0645 20.8832 29.0067L21 29H27ZM37 29C37.553 29 38 29.448 38 30C38 30.5126 37.6146 30.9355 37.1168 30.9933L37 31H31C30.447 31 30 30.552 30 30C30 29.4874 30.3854 29.0645 30.8832 29.0067L31 29H37ZM17 23C17.553 23 18 23.448 18 24C18 24.5126 17.6146 24.9355 17.1168 24.9933L17 25H11C10.447 25 10 24.552 10 24C10 23.4874 10.3854 23.0645 10.8832 23.0067L11 23H17ZM27 23C27.553 23 28 23.448 28 24C28 24.5126 27.6146 24.9355 27.1168 24.9933L27 25H21C20.447 25 20 24.552 20 24C20 23.4874 20.3854 23.0645 20.8832 23.0067L21 23H27ZM37 23C37.553 23 38 23.448 38 24C38 24.5126 37.6146 24.9355 37.1168 24.9933L37 25H31C30.447 25 30 24.552 30 24C30 23.4874 30.3854 23.0645 30.8832 23.0067L31 23H37ZM13.5 8C15.154 8 16.5 9.346 16.5 11C16.5 12.654 15.154 14 13.5 14C11.846 14 10.5 12.654 10.5 11C10.5 9.346 11.846 8 13.5 8ZM34.5 8C36.154 8 37.5 9.346 37.5 11C37.5 12.654 36.154 14 34.5 14C32.846 14 31.5 12.654 31.5 11C31.5 9.346 32.846 8 34.5 8ZM13.5 10C12.948 10 12.5 10.449 12.5 11C12.5 11.551 12.948 12 13.5 12C14.052 12 14.5 11.551 14.5 11C14.5 10.449 14.052 10 13.5 10ZM34.5 10C33.948 10 33.5 10.449 33.5 11C33.5 11.551 33.948 12 34.5 12C35.052 12 35.5 11.551 35.5 11C35.5 10.449 35.052 10 34.5 10Z" fill="white" />
  </mask>
  <g mask="url(#mask0)">
    <path fill-rule="evenodd" clip-rule="evenodd" d="M0 0H48V48H0V0Z" fill="inherit" />
  </g>
</svg>
