<?xml version="1.0" encoding="UTF-8"?>
<svg class="customer-ui__icon" width="48" height="48" viewBox="0 0 48 48" fill="#000000" xmlns="http://www.w3.org/2000/svg">
  <title>Call centre</title>
  <path d="M33 15.1c0-3.9-1.5-7.5-4.3-10.2-2.8-2.7-6.5-4-10.3-3.9C10.9 1.4 5.1 7.5 5 15.1c-2.8.5-5 2.9-5 5.9v4c0 3.3 2.7 6 6 6h1c1.1 0 2-.9 2-2v-9c0-.6-.4-1-1-1s-1 .4-1 1v9H6c-2.2 0-4-1.8-4-4v-4c0-2.2 1.8-4 4-4 .6 0 1-.4 1-1v-.6C7 8.7 12 3.3 18.4 3c3.3-.2 6.5 1 8.9 3.3C29.7 8.6 31 11.7 31 15v1c0 .6.5 1 1 1 2.2 0 4 1.8 4 4v4c0 2.2-1.8 4-4 4h-1v-9c0-.6-.4-1-1-1s-1 .4-1 1v9c0 1.1.9 2 2 2h.1c-1.3 3.8-4.1 4.8-6.2 5-.5-1.7-2-3-3.9-3h-4c-2.2 0-4 1.8-4 4s1.8 4 4 4h4c.6 0 1-.4 1-1s-.4-1-1-1h-4c-1.1 0-2-.9-2-2s.9-2 2-2h4c1.1 0 2 .9 2 2 0 .6.4 1 1 1 1.7 0 7.4-.5 9.2-7.1 2.7-.6 4.8-3 4.8-5.9v-4c0-3-2.2-5.4-5-5.9Z" fill="inherit"/>
</svg>
