<?xml version="1.0" encoding="UTF-8"?>
<svg class="customer-ui__icon" width="48" height="48" viewBox="0 0 48 48" fill="none" xmlns="http://www.w3.org/2000/svg">
  <title>Confirmed call</title>
  <path d="M24.1 2C25.5.6 27.8.6 29.2 2l2.195 2.195c1.25 1.254 4.139 4.384 1.205 9.305-.4.8-1 1.7-1.7 2.7 4 .9 7 4.5 6.9 8.7 0 5-4 9-9 9-3.9 0-7.3-2.5-8.5-6.1-2.2 1.7-4.8 3.7-6.9 4.9-1.5 1-2.9 1.3-4.1 1.3-2.7 0-4.6-1.8-5.3-2.6l-2.2-2.1c-.6-.6-1-1.6-1-2.5 0-.9.3-1.8 1-2.5l4.1-4.1c1.4-1.4 3.7-1.4 5.1 0l2.3 2.3c1-.8 3-2.4 4.8-4.2 1.8-1.8 3.4-3.8 4.2-4.8L20 11.2c-1.4-1.4-1.4-3.7 0-5.1L24.1 2Zm3.7 1.5c-.6-.6-1.6-.6-2.2 0l-4.1 4.1c-.6.6-.6 1.6 0 2.2l2.9 2.9c.4.3.4.9.1 1.3-.1.1-2.3 3.1-4.9 5.7-2.6 2.6-5.6 4.8-5.7 4.9-.4.3-.9.3-1.3-.1l-2.9-2.9c-.6-.6-1.6-.6-2.2 0l-4.1 4.1c-.3.3-.5.7-.5 1.1 0 .4.2.8.5 1.1L5.5 30c1.1 1.1 3.2 3.3 7 1 2.2-1.3 5.2-3.6 7.4-5.2v-.7c0-4.9 3.9-8.8 8.7-9 .9-1.3 1.7-2.6 2.3-3.5 2.3-3.8.2-5.9-1-7l-2.1-2.1ZM28.9 18c-3.9 0-7 3.1-7 7s3.1 7 7 7 7-3.1 7-7-3.1-7-7-7Zm2.8 3.3c.4-.4 1-.5 1.4 0 .4.4.5 1 .1 1.4l-5.3 6.1c-.2.2-.4.3-.7.3l-.123-.006c-.234-.025-.405-.123-.577-.294l-2.8-2.9c-.4-.4-.4-1 0-1.4.4-.4 1-.4 1.4 0l2 2.1 4.6-5.3Z" fill="inherit"/>
</svg>
