<svg width="48" height="48" class="customer-ui__icon" xmlns="http://www.w3.org/2000/svg"><path fill-rule="evenodd" clip-rule="evenodd" d="M36.9 35.4c.2.2.4.3.7.3.3 0 .5-.1.7-.3C42 31.6 44 26.6 44 21.3 44 16 42 11 38 7.2c-.4-.4-1-.4-1.4 0-.4.4-.4 1 0 1.4 3.3 3.4 5.1 8 5.1 12.7 0 4.5-1.5 8.7-4.4 12l-1.9-1.9c2.3-2.8 3.6-6.3 3.6-10 0-4-1.6-7.8-4.3-10.7-.2-.2-.4-.3-.7-.3-.3 0-.5.1-.7.3L30 14c-.3.4-.4 1 0 1.4 1.6 1.7 2.4 3.8 2.4 6.1 0 1.9-.6 3.8-1.7 5.3L27.9 24c.5-.7.7-1.5.7-2.4 0-2.6-2.1-4.7-4.7-4.7s-4.7 2.1-4.7 4.7c0 .8.3 1.7.7 2.4l-2.8 2.8c-1.1-1.6-1.7-3.4-1.7-5.3 0-2.3.9-4.4 2.4-6.1.4-.4.4-1 0-1.4l-3.3-3.3c-.2-.2-.4-.3-.7-.3-.3 0-.5.1-.7.3-2.8 2.9-4.3 6.7-4.3 10.7 0 3.7 1.2 7.2 3.6 10l-1.9 1.9c-2.8-3.4-4.4-7.6-4.4-12 0-4.8 1.8-9.3 5.2-12.7.4-.4.4-1 0-1.4-.4-.4-1-.4-1.4 0C6.2 11 4.2 16 4.2 21.3c0 5.3 2 10.3 5.7 14.1.2.2.4.3.7.3.2 0 .5-.1.7-.3l3.3-3.3c.4-.4.4-1 0-1.4-2.4-2.6-3.7-5.9-3.7-9.4 0-3.2 1-6.2 3-8.6l1.9 1.9c-1.5 1.9-2.3 4.3-2.3 6.7 0 2.7 1 5.4 2.9 7.4.2.2.4.3.7.3.2 0 .5-.1.7-.3l4.2-4.2c.4-.4.4-1 0-1.4-.4-.5-.7-1.1-.7-1.8 0-1.5 1.2-2.7 2.7-2.7 1.5 0 2.7 1.2 2.7 2.7 0 .7-.2 1.3-.7 1.8-.4.4-.4 1 0 1.4l4.4 4.2c.2.2.4.3.7.3.3 0 .5-.1.7-.3 1.9-2 2.9-4.6 2.9-7.4 0-2.4-.8-4.8-2.3-6.7l1.9-1.9c1.9 2.4 3 5.4 3 8.6 0 3.5-1.3 6.8-3.7 9.4-.4.4-.4 1 0 1.4l3.3 3.3ZM23 42c0 .6.4 1 1 1 .5 0 1-.4 1-1V26c0-.6-.4-1-1-1s-1 .4-1 1v16Z" fill="inherit"/><mask id="a" style="mask-type:alpha" maskUnits="userSpaceOnUse" x="4" y="6" width="40" height="37"><path fill-rule="evenodd" clip-rule="evenodd" d="M36.9 35.4c.2.2.4.3.7.3.3 0 .5-.1.7-.3C42 31.6 44 26.6 44 21.3 44 16 42 11 38 7.2c-.4-.4-1-.4-1.4 0-.4.4-.4 1 0 1.4 3.3 3.4 5.1 8 5.1 12.7 0 4.5-1.5 8.7-4.4 12l-1.9-1.9c2.3-2.8 3.6-6.3 3.6-10 0-4-1.6-7.8-4.3-10.7-.2-.2-.4-.3-.7-.3-.3 0-.5.1-.7.3L30 14c-.3.4-.4 1 0 1.4 1.6 1.7 2.4 3.8 2.4 6.1 0 1.9-.6 3.8-1.7 5.3L27.9 24c.5-.7.7-1.5.7-2.4 0-2.6-2.1-4.7-4.7-4.7s-4.7 2.1-4.7 4.7c0 .8.3 1.7.7 2.4l-2.8 2.8c-1.1-1.6-1.7-3.4-1.7-5.3 0-2.3.9-4.4 2.4-6.1.4-.4.4-1 0-1.4l-3.3-3.3c-.2-.2-.4-.3-.7-.3-.3 0-.5.1-.7.3-2.8 2.9-4.3 6.7-4.3 10.7 0 3.7 1.2 7.2 3.6 10l-1.9 1.9c-2.8-3.4-4.4-7.6-4.4-12 0-4.8 1.8-9.3 5.2-12.7.4-.4.4-1 0-1.4-.4-.4-1-.4-1.4 0C6.2 11 4.2 16 4.2 21.3c0 5.3 2 10.3 5.7 14.1.2.2.4.3.7.3.2 0 .5-.1.7-.3l3.3-3.3c.4-.4.4-1 0-1.4-2.4-2.6-3.7-5.9-3.7-9.4 0-3.2 1-6.2 3-8.6l1.9 1.9c-1.5 1.9-2.3 4.3-2.3 6.7 0 2.7 1 5.4 2.9 7.4.2.2.4.3.7.3.2 0 .5-.1.7-.3l4.2-4.2c.4-.4.4-1 0-1.4-.4-.5-.7-1.1-.7-1.8 0-1.5 1.2-2.7 2.7-2.7 1.5 0 2.7 1.2 2.7 2.7 0 .7-.2 1.3-.7 1.8-.4.4-.4 1 0 1.4l4.4 4.2c.2.2.4.3.7.3.3 0 .5-.1.7-.3 1.9-2 2.9-4.6 2.9-7.4 0-2.4-.8-4.8-2.3-6.7l1.9-1.9c1.9 2.4 3 5.4 3 8.6 0 3.5-1.3 6.8-3.7 9.4-.4.4-.4 1 0 1.4l3.3 3.3ZM23 42c0 .6.4 1 1 1 .5 0 1-.4 1-1V26c0-.6-.4-1-1-1s-1 .4-1 1v16Z" fill="#fff"/></mask><g mask="url(#a)"><path fill="inherit" d="M0 0h48v48H0z"/></g></svg>