<svg class="customer-ui__icon" height="48" width="48" xmlns="http://www.w3.org/2000/svg" fill-rule="evenodd" clip-rule="evenodd" stroke-linejoin="round" stroke-miterlimit="2">
  <path d="M43 36c.5 0 1 .4 1 1s-.4 1-1 1H5c-.6 0-1-.4-1-1s.4-1 1-1h38zM15.8 10c1.5 0 2.6 1.1 2.7 2.6L19 28c0 .8-.3 1.5-.8 2.1-.6.6-1.3.9-2.1.9h-.5c-.5 1.7-2 3-3.9 3s-3.4-1.3-3.9-3H5c-.6 0-1-.4-1-1s.4-1 1-1h2.8c.5-1.7 2-3.1 3.9-3.1s3.5 1.3 3.9 3.1h.5c.3 0 .5-.1.7-.3.1-.1.2-.4.2-.6l-.5-15.4c0-.4-.3-.7-.7-.7H5c-.6 0-1-.4-1-1s.4-1 1-1h10.8zm16.5 2.4c.4-.4 1-.4 1.4 0l10.9 10.9c.3.3.3.7.1 1.1-.1.4-.5.6-.9.6h-1.9v8c0 .6-.4 1-1 1H25c-.6 0-1-.4-1-1v-8h-1.9c-.4 0-.7-.2-.9-.6-.2-.4-.1-.8.2-1.1l10.9-10.9zM11.7 27.9c-1.2 0-2.1.9-2.1 2.1 0 1.2 1 2.1 2.1 2.1 1.2 0 2.1-.9 2.1-2.1 0-1.2-.9-2.1-2.1-2.1zM33 14.5L24.5 23h.5c.6 0 1 .4 1 1v8h13.9v-8c0-.6.4-1 1-1h.6L33 14.5z" fill="inherit" fill-rule="nonzero"/>
</svg>
