<?xml version="1.0" encoding="UTF-8"?>
<svg class="customer-ui__icon" width="48" height="48" viewBox="0 0 48 48" fill="none" xmlns="http://www.w3.org/2000/svg">
  <title>Gift</title>
  <path d="M31 10h-9.8l3.3-1.5c1.2-.5 2.1-1.6 2.3-2.9.2-1.3-.2-2.6-1.1-3.5C25 1.5 23.8.8 22.3 1h-.1c-1.3.2-2.3 1.1-2.9 2.2L17 8.4l-2.3-5.1c-.5-1.2-1.6-2-2.9-2.2h-.1C10.2.9 9 1.6 8.3 2.2c-.9.9-1.3 2.2-1.1 3.5.2 1.3 1.1 2.4 2.3 2.9l3.3 1.5H3c-1.7 0-3 1.3-3 3v4c0 .6.4 1 1 1h1v11c0 1.7 1.3 3 3 3h24c1.7 0 3-1.3 3-3v-8c0-.6-.4-1-1-1s-1 .4-1 1v8c0 .6-.4 1-1 1H18V18h15c.6 0 1-.4 1-1v-4c0-1.7-1.3-3-3-3Zm-9.8-5.9c.3-.6.8-1 1.4-1.1.7-.1 1.4.2 1.7.6.4.4.6 1 .5 1.7-.1.6-.5 1.2-1.1 1.4L19 8.8l2.2-4.7Zm-12 1.1c-.1-.6.1-1.2.5-1.7.3-.3.9-.6 1.5-.6h.2c.6.1 1.1.5 1.4 1.1l2.1 4.7-4.6-2.1c-.6-.2-1-.7-1.1-1.4ZM16 30H5c-.6 0-1-.4-1-1V17c0-.6-.4-1-1-1H2v-3c0-.6.4-1 1-1h13v4H7c-.6 0-1 .4-1 1s.4 1 1 1h9v12Zm16-14H18v-4h13c.6 0 1 .4 1 1v3Z" fill="inherit"/>
</svg>
