<?xml version="1.0" encoding="UTF-8"?>
<svg fill="#000000" class="customer-ui__icon" width="48px" height="48px" xmlns="http://www.w3.org/2000/svg"
    xmlns:xlink="http://www.w3.org/1999/xlink" viewBox="0 0 48 48">
    <title>Information</title>
    <switch>
        <g>
            <path fill="inherit"
                d="M27 35c-1.9 0-3.7-.9-4.7-2.5-1.1-1.6-1.2-3.6-.5-5.3l2-4.7c.2-.3.1-.7-.1-1-.2-.3-.5-.5-.8-.5H21c-.6 0-1-.4-1-1s.4-1 1-1h1.9c1 0 2 .5 2.5 1.4.6.9.6 1.9.2 2.9l-2 4.7c-.5 1.1-.4 2.4.3 3.4s1.8 1.6 3 1.6c.6 0 1 .4 1 1s-.3 1-.9 1z" />
            <defs>
                <path id="a" d="M27 15c0 1.1-.9 2-2 2s-2-.9-2-2 .9-2 2-2 2 .9 2 2" />
            </defs>
            <use fill="inherit" fill-rule="evenodd" clip-rule="evenodd" overflow="visible" xlink:href="#a" />
            <path fill="inherit"
                d="M24 44c-.6 0-1-.4-1-1s.4-1 1-1c10 0 18-8 18-18 0-9.9-8-18-18-18-9.9 0-18 8.1-18 18 0 6.9 3.8 13.1 10 16.1.5.2.7.8.5 1.3-.2.5-.8.7-1.3.5C8.3 38.6 4 31.7 4 24 4 13 13 4 24 4s20 9 20 20-8.9 20-20 20z" />
        </g>
    </switch>
</svg>