<?xml version="1.0" encoding="UTF-8"?>
<svg class="customer-ui__icon" width="48" height="48" viewBox="0 0 48 48" fill="#000000" xmlns="http://www.w3.org/2000/svg">
  <title>Location</title>
  <path d="M14.9 0c7.7 0 14 6.3 14 14 0 4.7-1.5 9.2-4.3 13.4-.3.5-.9.6-1.4.3-.5-.3-.6-.9-.3-1.4 2.6-3.9 4-8 4-12.3 0-6.6-5.4-12-12-12s-12 5.4-12 12c0 12 10.3 19.2 12 20 .6-.3 2.2-1.3 4.1-3.1.4-.4 1-.4 1.4 0 .4.4.4 1 0 1.4-2 1.8-4.6 3.7-5.5 3.7-1.8 0-14-8.6-14-22 0-7.7 6.3-14 14-14Zm0 7c3.9 0 7 3.1 7 7s-3.2 7-7 7c-3.9 0-7-3.1-7-7s3.1-7 7-7Zm0 2c-2.8 0-5 2.2-5 5s2.2 5 5 5 5-2.2 5-5-2.3-5-5-5Z" fill="inherit"/>
</svg>
