<svg width="48" height="48" class="customer-ui__icon" xmlns="http://www.w3.org/2000/svg"><path fill-rule="evenodd" clip-rule="evenodd" d="M14.2 28h-3.3c-.6 0-1-.4-1-1s.4-1 1-1h3.3c.6 0 1-.4 1-1s-.4-1-1-1h-.7c-5 0-9-4-9-9s4-9 9-9h9.3c5 0 9 4 9 9s-4 9-9 9h-2c-.6 0-1-.4-1-1s.4-1 1-1h2c3.9 0 7-3.1 7-7s-3.1-7-7-7h-9.3c-3.9 0-7 3.1-7 7s3.1 7 7 7h.7c1.7 0 3 1.3 3 3s-1.4 3-3 3ZM37 42h2.5c.6 0 1-.4 1-1s-.4-1-1-1H37c-.3 0-.5-.2-.5-.5s.2-.5.5-.5h.5c3.9 0 7-3.1 7-7s-3.1-7-7-7h-7c-3.9 0-7 3.1-7 7s3.1 7 7 7H32c.6 0 1-.4 1-1s-.4-1-1-1h-1.5c-2.8 0-5-2.2-5-5s2.2-5 5-5h7c2.8 0 5 2.2 5 5s-2.2 5-5 5H37c-1.4 0-2.5 1.1-2.5 2.5S35.6 42 37 42Zm-8.7-9.3c.2.2.4.3.7.3.3 0 .5-.1.8-.3.2-.2.3-.4.3-.7 0-.2-.1-.5-.3-.7-.1 0-.2-.1-.2-.1-.058-.058-.082-.082-.111-.092-.022-.008-.047-.008-.089-.008-.057-.058-.082-.082-.111-.092C29.267 31 29.242 31 29.2 31c-.3 0-.7.1-.9.3-.1.1-.2.2-.2.3-.1.1-.1.3-.1.4 0 .3.1.5.3.7Zm5.7.3c-.3 0-.5-.1-.7-.3-.2-.2-.3-.4-.3-.7 0-.1 0-.3.1-.4 0-.1.1-.2.2-.3.4-.4 1-.4 1.4 0 .1.1.2.2.2.3 0 .041.017.083.037.131.029.069.063.152.063.269 0 .3-.1.5-.3.7-.2.2-.4.3-.7.3Zm4.3-.3c.2.2.4.3.7.3.3 0 .5-.1.7-.3.2-.2.3-.4.3-.7 0-.3-.1-.5-.3-.7-.4-.4-1-.4-1.4 0-.2.2-.3.4-.3.7 0 .3.1.5.3.7ZM22 15.7c.2.2.4.3.7.3h.2c.058-.057.082-.082.111-.092.022-.008.047-.008.089-.008.1 0 .2-.1.2-.1l.1-.1c.05-.05.075-.1.1-.15.025-.05.05-.1.1-.15.1-.1.1-.3.1-.4 0-.3-.1-.5-.3-.7 0 0 0-.1-.1-.1-.05 0-.075-.025-.1-.05-.025-.025-.05-.05-.1-.05-.058-.057-.082-.082-.111-.092C22.967 14 22.942 14 22.9 14c-.3 0-.7.1-.9.3-.2.2-.3.4-.3.7 0 .2.1.5.3.7Zm-4.3.3h-.2c-.043 0-.067 0-.089-.008-.03-.01-.053-.035-.111-.092-.05 0-.075-.025-.1-.05-.025-.025-.05-.05-.1-.05l-.1-.1c-.2-.2-.3-.4-.3-.7 0-.1 0-.3.1-.4.05-.05.075-.1.1-.15.025-.05.05-.1.1-.15l.1-.1c.05 0 .075-.025.1-.05.025-.025.05-.05.1-.05.043 0 .067 0 .089-.008.03-.01.053-.035.111-.092.3-.1.7 0 .9.3.1.1.2.2.2.3 0 .041.017.083.037.131.029.069.063.152.063.269 0 .3-.1.5-.3.7-.1.1-.2.2-.3.2-.2.1-.3.1-.4.1Zm-5.7-.3c.2.2.4.3.7.3h.2c.057-.057.082-.082.111-.092.022-.008.046-.008.089-.008.1 0 .2-.1.2-.1l.1-.1c.2-.2.3-.4.3-.7 0-.117-.034-.2-.063-.269-.02-.048-.037-.09-.037-.131 0-.1-.1-.2-.2-.3 0 0 0-.1-.1-.1-.05 0-.075-.025-.1-.05-.025-.025-.05-.05-.1-.05-.057-.057-.082-.082-.111-.092C12.967 14 12.943 14 12.9 14c-.2 0-.4 0-.6.1-.1 0-.2.1-.3.2-.05.05-.075.1-.1.15-.025.05-.05.1-.1.15-.1.1-.1.3-.1.4 0 .2.1.5.3.7Z" fill="inherit"/><mask id="a" style="mask-type:alpha" maskUnits="userSpaceOnUse" x="4" y="6" width="41" height="36"><path fill-rule="evenodd" clip-rule="evenodd" d="M14.2 28h-3.3c-.6 0-1-.4-1-1s.4-1 1-1h3.3c.6 0 1-.4 1-1s-.4-1-1-1h-.7c-5 0-9-4-9-9s4-9 9-9h9.3c5 0 9 4 9 9s-4 9-9 9h-2c-.6 0-1-.4-1-1s.4-1 1-1h2c3.9 0 7-3.1 7-7s-3.1-7-7-7h-9.3c-3.9 0-7 3.1-7 7s3.1 7 7 7h.7c1.7 0 3 1.3 3 3s-1.4 3-3 3ZM37 42h2.5c.6 0 1-.4 1-1s-.4-1-1-1H37c-.3 0-.5-.2-.5-.5s.2-.5.5-.5h.5c3.9 0 7-3.1 7-7s-3.1-7-7-7h-7c-3.9 0-7 3.1-7 7s3.1 7 7 7H32c.6 0 1-.4 1-1s-.4-1-1-1h-1.5c-2.8 0-5-2.2-5-5s2.2-5 5-5h7c2.8 0 5 2.2 5 5s-2.2 5-5 5H37c-1.4 0-2.5 1.1-2.5 2.5S35.6 42 37 42Zm-8.7-9.3c.2.2.4.3.7.3.3 0 .5-.1.8-.3.2-.2.3-.4.3-.7 0-.2-.1-.5-.3-.7-.1 0-.2-.1-.2-.1-.058-.058-.082-.082-.111-.092-.022-.008-.047-.008-.089-.008-.057-.058-.082-.082-.111-.092C29.267 31 29.242 31 29.2 31c-.3 0-.7.1-.9.3-.1.1-.2.2-.2.3-.1.1-.1.3-.1.4 0 .3.1.5.3.7Zm5.7.3c-.3 0-.5-.1-.7-.3-.2-.2-.3-.4-.3-.7 0-.1 0-.3.1-.4 0-.1.1-.2.2-.3.4-.4 1-.4 1.4 0 .1.1.2.2.2.3 0 .041.017.083.037.131.029.069.063.152.063.269 0 .3-.1.5-.3.7-.2.2-.4.3-.7.3Zm4.3-.3c.2.2.4.3.7.3.3 0 .5-.1.7-.3.2-.2.3-.4.3-.7 0-.3-.1-.5-.3-.7-.4-.4-1-.4-1.4 0-.2.2-.3.4-.3.7 0 .3.1.5.3.7ZM22 15.7c.2.2.4.3.7.3h.2c.058-.057.082-.082.111-.092.022-.008.047-.008.089-.008.1 0 .2-.1.2-.1l.1-.1c.05-.05.075-.1.1-.15.025-.05.05-.1.1-.15.1-.1.1-.3.1-.4 0-.3-.1-.5-.3-.7 0 0 0-.1-.1-.1-.05 0-.075-.025-.1-.05-.025-.025-.05-.05-.1-.05-.058-.057-.082-.082-.111-.092C22.967 14 22.942 14 22.9 14c-.3 0-.7.1-.9.3-.2.2-.3.4-.3.7 0 .2.1.5.3.7Zm-4.3.3h-.2c-.043 0-.067 0-.089-.008-.03-.01-.053-.035-.111-.092-.05 0-.075-.025-.1-.05-.025-.025-.05-.05-.1-.05l-.1-.1c-.2-.2-.3-.4-.3-.7 0-.1 0-.3.1-.4.05-.05.075-.1.1-.15.025-.05.05-.1.1-.15l.1-.1c.05 0 .075-.025.1-.05.025-.025.05-.05.1-.05.043 0 .067 0 .089-.008.03-.01.053-.035.111-.092.3-.1.7 0 .9.3.1.1.2.2.2.3 0 .041.017.083.037.131.029.069.063.152.063.269 0 .3-.1.5-.3.7-.1.1-.2.2-.3.2-.2.1-.3.1-.4.1Zm-5.7-.3c.2.2.4.3.7.3h.2c.057-.057.082-.082.111-.092.022-.008.046-.008.089-.008.1 0 .2-.1.2-.1l.1-.1c.2-.2.3-.4.3-.7 0-.117-.034-.2-.063-.269-.02-.048-.037-.09-.037-.131 0-.1-.1-.2-.2-.3 0 0 0-.1-.1-.1-.05 0-.075-.025-.1-.05-.025-.025-.05-.05-.1-.05-.057-.057-.082-.082-.111-.092C12.967 14 12.943 14 12.9 14c-.2 0-.4 0-.6.1-.1 0-.2.1-.3.2-.05.05-.075.1-.1.15-.025.05-.05.1-.1.15-.1.1-.1.3-.1.4 0 .2.1.5.3.7Z" fill="#fff"/></mask><g mask="url(#a)"><path fill="inherit" d="M.5 0h48v48H.5z"/></g></svg>