<svg width="48" height="48" class="customer-ui__icon" xmlns="http://www.w3.org/2000/svg"><path fill-rule="evenodd" clip-rule="evenodd" d="M38.3 22.2c2.1 1.1 3.7 3 4.4 5.3 1 3.3.1 6.7-2.5 9.1-.4.4-1 .4-1.4 0-.4-.4-.4-1 0-1.4 1.9-1.9 2.6-4.6 1.8-7.1-.5-1.8-1.8-3.2-3.4-4.1-1.6-.9-3.5-1-5.3-.5-3.6 1.1-5.7 5-4.6 8.7.9 3 3.6 5 6.6 5L32.5 36c-.324-.324-.386-.78-.45-1.26-.016-.113-.031-.226-.05-.34.3-.4 1-.5 1.4-.1l3.1 2.6c.062 0 .086.038.118.09a.56.56 0 0 0 .082.11l.1.1c.058.057.082.082.092.111.008.022.008.046.008.089V38c-.05.05-.075.1-.1.15-.025.05-.05.1-.1.15l-2.6 3.1c-.2.3-.5.4-.8.4-.2 0-.4 0-.6-.2-.4-.3-.5-1-.1-1.4l1-1.2c-3.8 0-7.2-2.4-8.4-6.1-2.2 1.7-4.8 3.7-6.9 4.9-1.5 1-2.9 1.3-4.1 1.3-2.7 0-4.6-1.8-5.3-2.6l-2.1-2.1c-.6-.6-1-1.5-1-2.5 0-.9.3-1.8 1-2.5l4.1-4.1c1.4-1.4 3.7-1.4 5.1 0l2.3 2.3c1-.8 3-2.4 4.8-4.2 1.8-1.8 3.4-3.8 4.2-4.8L25 16.3c-1.4-1.4-1.4-3.7 0-5.1l4.1-4.1c1.4-1.4 3.7-1.4 5.1 0l2.1 2.1.076.076c1.17 1.166 4.356 4.338 1.324 9.424-.4.8-1 1.7-1.7 2.7.8.1 1.6.4 2.3.8Zm-13.2 8.6c-.3-4.1 2.2-8.1 6.3-9.3.8-.2 1.6-.3 2.3-.3.9-1.3 1.7-2.5 2.3-3.5 2.3-3.8.2-5.9-1-7l-2.1-2.1c-.6-.6-1.6-.6-2.2 0l-4.1 4.1c-.6.6-.6 1.6 0 2.2l2.9 2.9c.4.3.4.9.1 1.3-.016.016-.09.11-.211.268-.621.805-2.515 3.258-4.689 5.432-2.174 2.174-4.627 4.068-5.431 4.689-.158.122-.253.194-.269.21-.4.3-1 .3-1.3-.1l-2.9-2.9c-.6-.6-1.6-.6-2.2 0l-4.1 4.1c-.3.3-.5.7-.5 1.1 0 .4.2.8.5 1.1l2.1 2.1.052.053c1.114 1.116 3.208 3.212 6.948.948 2.2-1.3 5.3-3.5 7.5-5.3Z" fill="inherit"/><mask id="a" style="mask-type:alpha" maskUnits="userSpaceOnUse" x="5" y="6" width="39" height="36"><path fill-rule="evenodd" clip-rule="evenodd" d="M38.3 22.2c2.1 1.1 3.7 3 4.4 5.3 1 3.3.1 6.7-2.5 9.1-.4.4-1 .4-1.4 0-.4-.4-.4-1 0-1.4 1.9-1.9 2.6-4.6 1.8-7.1-.5-1.8-1.8-3.2-3.4-4.1-1.6-.9-3.5-1-5.3-.5-3.6 1.1-5.7 5-4.6 8.7.9 3 3.6 5 6.6 5L32.5 36c-.324-.324-.386-.78-.45-1.26-.016-.113-.031-.226-.05-.34.3-.4 1-.5 1.4-.1l3.1 2.6c.062 0 .086.038.118.09a.56.56 0 0 0 .082.11l.1.1c.058.057.082.082.092.111.008.022.008.046.008.089V38c-.05.05-.075.1-.1.15-.025.05-.05.1-.1.15l-2.6 3.1c-.2.3-.5.4-.8.4-.2 0-.4 0-.6-.2-.4-.3-.5-1-.1-1.4l1-1.2c-3.8 0-7.2-2.4-8.4-6.1-2.2 1.7-4.8 3.7-6.9 4.9-1.5 1-2.9 1.3-4.1 1.3-2.7 0-4.6-1.8-5.3-2.6l-2.1-2.1c-.6-.6-1-1.5-1-2.5 0-.9.3-1.8 1-2.5l4.1-4.1c1.4-1.4 3.7-1.4 5.1 0l2.3 2.3c1-.8 3-2.4 4.8-4.2 1.8-1.8 3.4-3.8 4.2-4.8L25 16.3c-1.4-1.4-1.4-3.7 0-5.1l4.1-4.1c1.4-1.4 3.7-1.4 5.1 0l2.1 2.1.076.076c1.17 1.166 4.356 4.338 1.324 9.424-.4.8-1 1.7-1.7 2.7.8.1 1.6.4 2.3.8Zm-13.2 8.6c-.3-4.1 2.2-8.1 6.3-9.3.8-.2 1.6-.3 2.3-.3.9-1.3 1.7-2.5 2.3-3.5 2.3-3.8.2-5.9-1-7l-2.1-2.1c-.6-.6-1.6-.6-2.2 0l-4.1 4.1c-.6.6-.6 1.6 0 2.2l2.9 2.9c.4.3.4.9.1 1.3-.016.016-.09.11-.211.268-.621.805-2.515 3.258-4.689 5.432-2.174 2.174-4.627 4.068-5.431 4.689-.158.122-.253.194-.269.21-.4.3-1 .3-1.3-.1l-2.9-2.9c-.6-.6-1.6-.6-2.2 0l-4.1 4.1c-.3.3-.5.7-.5 1.1 0 .4.2.8.5 1.1l2.1 2.1.052.053c1.114 1.116 3.208 3.212 6.948.948 2.2-1.3 5.3-3.5 7.5-5.3Z" fill="#fff"/></mask><g mask="url(#a)"><path fill="inherit" d="M.5 0h48v48H.5z"/></g></svg>