<?xml version="1.0" encoding="UTF-8"?>
<svg class="customer-ui__icon" width="48" height="48" viewBox="0 0 48 48" fill="none" xmlns="http://www.w3.org/2000/svg">
  <title>PDF</title>
  <path d="M17.6 0c.5 0 1 .2 1.4.6l9.9 9.9c.3.3.4.7.4 1.1 0 .4-.2.8-.4 1.1-.2.3-.7.3-1.1.3H21c-2.2 0-4-1.8-4-4V6c0-.6.4-1 1-1s1 .4 1 1v3c0 1.1.9 2 2 2h5.6l-9-9H4c-1.1 0-2 .9-2 2v30c0 1.1.9 2 2 2h22c1.1 0 2-.9 2-2V17c0-.6.4-1 1-1s1 .4 1 1v17c0 2.2-1.8 4-4 4H4c-2.2 0-4-1.8-4-4V4c0-2.2 1.8-4 4-4h13.6ZM24 30c.6 0 1 .4 1 1s-.4 1-1 1H12c-.6 0-1-.4-1-1s.4-1 1-1h12Zm0-4c.6 0 1 .4 1 1s-.4 1-1 1H12c-.6 0-1-.4-1-1s.4-1 1-1h12Zm0-4c.6 0 1 .4 1 1s-.4 1-1 1H12c-.6 0-1-.4-1-1s.4-1 1-1h12Z" fill="inherit"/>
</svg>
