<?xml version="1.0" encoding="UTF-8"?>
<svg fill="#000000" class="customer-ui__icon" width="48px" height="48px" xmlns="http://www.w3.org/2000/svg" xmlns:xlink="http://www.w3.org/1999/xlink" viewBox="0 0 48 48">
    <title>Question mark</title>
    <path fill="inherit" d="M24 28c-.6 0-1-.4-1-1v-.6c0-1.8 1-3.4 2.7-4.3 1.5-.8 2.3-2.5 2-4.2-.3-1.4-1.4-2.6-2.9-2.9-1.2-.2-2.3 0-3.2.8-.9.7-1.4 1.8-1.4 2.9 0 .6-.4 1-1 1s-1-.4-1-1c0-1.7.8-3.4 2.1-4.5 1.4-1.1 3.1-1.5 4.9-1.2 2.2.5 3.9 2.2 4.4 4.4.5 2.6-.7 5.2-3 6.4-1 .5-1.6 1.5-1.6 2.5v.7c0 .6-.4 1-1 1z" />
    <path fill="inherit" d="M24 44c-.6 0-1-.4-1-1s.4-1 1-1c9.9 0 18-8.1 18-18S33.9 6 24 6 6 14.1 6 24c0 6.8 3.8 13 9.9 16.1.5.2.7.8.4 1.3-.2.5-.8.7-1.3.4C8.2 38.4 4 31.5 4 23.9c0-11 9-20 20-20s20 9 20 20C44 35 35 44 24 44z" />
    <path fill="inherit" d="M24 30.8c-1 0-1.8.8-1.8 1.8s.8 1.8 1.8 1.8 1.8-.8 1.8-1.8-.8-1.8-1.8-1.8z" />
</svg>
