<svg class="customer-ui__icon" width="48" height="48" xmlns="http://www.w3.org/2000/svg" xmlns:xlink="http://www.w3.org/1999/xlink">
  <title>Search</title>
  <defs>
    <path d="M39.8 38.3L32 30.5c-.4-.4-1-.4-1.4 0-2.3 2.3-5.3 3.5-8.5 3.5-6.6 0-12-5.4-12-12s5.4-12 12-12 12 5.4 12 12c0 1.6-.3 3.1-.9 4.6-.2.5 0 1.1.5 1.3.5.2 1.1 0 1.3-.5.7-1.7 1.1-3.5 1.1-5.4 0-7.7-6.3-14-14-14s-14 6.3-14 14 6.3 14 14 14c3.4 0 6.6-1.2 9.2-3.4l7.1 7.1c.2.2.5.3.7.3.2 0 .5-.1.7-.3.4-.4.4-1 0-1.4z" id="a"/>
  </defs>
  <g fill="inherit" fill-rule="evenodd">
    <mask id="b" fill="#fff">
      <use xlink:href="#a"/>
    </mask>
    <use fill="inherit" fill-rule="nonzero" xlink:href="#a"/>
    <path fill="inherit" mask="url(#b)" d="M0 0h48v48H0z"/>
  </g>
</svg>
