<?xml version="1.0" encoding="UTF-8"?>
<svg class="customer-ui__icon" width="48px" height="48px" viewBox="0 0 48 48" version="1.1" fill="#000000" xmlns="http://www.w3.org/2000/svg" xmlns:xlink="http://www.w3.org/1999/xlink">
    <title>Broadband</title>
    <defs>
        <path d="M24,40.439 C20.564,40.439 17.77,37.631 17.77,34.18 C17.77,30.729 20.564,27.921 24,27.921 C25.282,27.921 26.511,28.31 27.546,29.032 L32.062,24.491 C29.815,22.56 26.988,21.507 24,21.507 C20.68,21.507 17.558,22.808 15.209,25.169 C14.834,25.547 14.166,25.547 13.791,25.169 L9.041,20.393 C8.653,20.003 8.653,19.373 9.041,18.983 C13.037,14.966 18.349,12.753 24,12.753 C29.315,12.753 34.332,14.711 38.233,18.287 L41.577,14.926 C36.781,10.452 30.578,8 24,8 C17.091,8 10.595,10.705 5.709,15.618 C5.32,16.01 4.687,16.011 4.295,15.622 C3.903,15.232 3.901,14.599 4.291,14.208 C9.555,8.915 16.555,6 24,6 C31.445,6 38.445,8.915 43.709,14.208 C44.097,14.598 44.097,15.228 43.709,15.618 L38.959,20.393 C38.584,20.771 37.916,20.771 37.541,20.393 C33.924,16.756 29.115,14.753 24,14.753 C19.217,14.753 14.702,16.505 11.178,19.706 L14.524,23.07 C17.151,20.765 20.479,19.507 24,19.507 C27.857,19.507 31.482,21.017 34.209,23.759 C34.597,24.149 34.597,24.779 34.209,25.169 L28.325,31.085 C27.939,31.472 27.315,31.479 26.922,31.101 C26.132,30.34 25.094,29.921 24,29.921 C21.667,29.921 19.77,31.832 19.77,34.18 C19.77,36.528 21.667,38.439 24,38.439 C25.033,38.439 26.027,38.06 26.8,37.373 C27.213,37.005 27.845,37.043 28.212,37.455 C28.579,37.868 28.542,38.5 28.129,38.867 C26.99,39.881 25.523,40.439 24,40.439" id="path-1"></path>
    </defs>
    <g id="Icons-/-48x48-/-Services--/-WIFI" stroke="none" stroke-width="1" fill-rule="evenodd">
        <mask id="mask-2" fill="white">
            <use xlink:href="#path-1"></use>
        </mask>
        <g id="Mask"></g>
        <rect id="color" fill="inherit" mask="url(#mask-2)" x="0" y="0" width="48" height="48"></rect>
    </g>
</svg>