<svg class="customer-ui__icon" width="48" height="48" xmlns="http://www.w3.org/2000/svg">
  <title>Home Phone</title>
  <path d="M38.1 7c3.3 0 5.9 2.6 6 5.9 0 1.9-.8 3.6-2.3 4.7-.4.3-1.1.2-1.4-.2-.3-.4-.2-1.1.2-1.4.9-.8 1.5-1.9 1.5-3.1 0-2.2-1.8-3.9-3.9-3.9H9.9C7.7 9 6 10.7 6 12.9c0 2.1 1.7 3.8 3.9 3.8h1.8c8-2.7 16.9-2.7 24.8 0 .4.2.6.4.7.8L40.1 33c.1.8.2 1.5.2 2.3v3.2c0 1.9-1.6 3.5-3.5 3.5H11.2c-1.9 0-3.5-1.6-3.5-3.5v-3.2c0-.8.1-1.5.2-2.3l2.8-14.2h-.8c-3.3 0-5.9-2.6-5.9-5.9C4 9.6 6.6 7 9.9 7h28.2Zm-2.8 11.5c-7.3-2.4-15.3-2.4-22.6 0L9.9 33.4c-.1.6-.2 1.3-.2 1.9v3.2c0 .8.7 1.5 1.5 1.5h25.6c.8 0 1.5-.7 1.5-1.5v-3.2c0-.6-.1-1.3-.2-1.9l-2.8-14.9ZM24 19.7c5.1 0 9.2 3.2 9.2 7.2s-4.1 7.2-9.2 7.2-9.2-3.3-9.2-7.2c0-4 4.1-7.2 9.2-7.2Zm0 1.9c-4 0-7.2 2.4-7.2 5.2 0 2.9 3.2 5.2 7.2 5.2s7.2-2.3 7.2-5.2c0-2.9-3.2-5.2-7.2-5.2Z" fill="inherit"/>
</svg>
