<?xml version="1.0" encoding="UTF-8"?>
<svg class="customer-ui__icon" width="48px" height="48px" viewBox="0 0 48 48" fill="#000000" version="1.1" xmlns="http://www.w3.org/2000/svg" xmlns:xlink="http://www.w3.org/1999/xlink">
    <title>Mobile</title>
    <defs>
        <path d="M33,4 C34.5949286,4 35.9034643,5.25157398 35.9948968,6.82401157 L36,7 L36,32 C36,32.552 35.553,33 35,33 C34.4865,33 34.064398,32.6137143 34.0067176,32.1165685 L34,32 L34,7 C34,6.48835714 33.6137143,6.06466327 33.1165685,6.00674599 L33,6 L15.045,6 C14.5074,6 14.0630089,6.40855111 14.0061461,6.93133393 L14,7.045 L14,40.955 C14,41.4926 14.4085511,41.9369911 14.9313339,41.9938539 L15.045,42 L33,42 C33.5125714,42 33.9354694,41.612852 33.9932682,41.1163837 L34,41 L34,37 L17,37 C16.448,37 16,36.552 16,36 C16,35.4874286 16.3862857,35.0645306 16.8834315,35.0067318 L17,35 L35,35 C35.5135,35 35.935602,35.3862857 35.9932824,35.8834315 L36,36 L36,41 C36,42.5949286 34.748426,43.9034643 33.1759884,43.9948968 L33,44 L15.045,44 C13.4259643,44 12.0979707,42.7298291 12.0051791,41.1336472 L12,40.955 L12,7.045 C12,5.42596429 13.2701709,4.09797066 14.8663528,4.00517907 L15.045,4 L33,4 Z M24,38.4497 C24.552,38.4497 25,38.8977 25,39.4497 C25,40.0017 24.552,40.4497 24,40.4497 C23.448,40.4497 23,40.0017 23,39.4497 C23,38.8977 23.448,38.4497 24,38.4497 Z M29.0666,7.9453 C29.6196,7.9453 30.0666,8.3933 30.0666,8.9453 C30.0666,9.45787143 29.6811765,9.88076939 29.1833533,9.93856822 L29.0666,9.9453 L18.9336,9.9453 C18.3816,9.9453 17.9336,9.4973 17.9336,8.9453 C17.9336,8.43272857 18.3198857,8.00983061 18.8170315,7.95203178 L18.9336,7.9453 L29.0666,7.9453 Z" id="path-1"></path>
    </defs>
    <g id="Icons-/-48x48/-Services--/-Mobile" stroke="none" stroke-width="1" fill-rule="evenodd">
        <mask id="mask-2" fill="white">
            <use xlink:href="#path-1"></use>
        </mask>
        <g id="Mask"></g>
        <rect id="color" fill="inherit" mask="url(#mask-2)" x="0" y="0" width="48" height="48"></rect>
    </g>
</svg>