<?xml version="1.0" encoding="UTF-8"?>
<svg class="customer-ui__icon" width="48px" height="48px" fill="#000000" viewBox="0 0 48 48" version="1.1" xmlns="http://www.w3.org/2000/svg" xmlns:xlink="http://www.w3.org/1999/xlink">
    <title>Energy</title>
    <path d="M8.3942,43.7954 C8.0192,43.5094 7.8952,43.0014 8.0952,42.5754 L15.8082,26.1464 L10.4002,26.1464 C10.0732,26.1464 9.7672,25.9864 9.5802,25.7184 C9.3932,25.4504 9.3492,25.1074 9.4622,24.8004 L16.8952,4.6544 C17.0862,4.1364 17.6622,3.8704 18.1792,4.0624 C18.6972,4.2534 18.9622,4.8284 18.7712,5.3464 L11.8352,24.1464 L17.3822,24.1464 C17.7252,24.1464 18.0432,24.3214 18.2272,24.6104 C18.4102,24.8984 18.4332,25.2614 18.2882,25.5714 L11.8742,39.2324 L36.2882,18.3914 L25.9122,18.3914 C25.5352,18.3914 25.1892,18.1794 25.0202,17.8424 C24.8502,17.5054 24.8832,17.1024 25.1072,16.7984 L33.0622,6.0004 L23.8852,6.0004 C23.3332,6.0004 22.8852,5.5524 22.8852,5.0004 C22.8852,4.4484 23.3332,4.0004 23.8852,4.0004 L35.0412,4.0004 C35.4182,4.0004 35.7642,4.2124 35.9342,4.5494 C36.1042,4.8864 36.0702,5.2904 35.8462,5.5934 L27.8912,16.3914 L39.0002,16.3914 C39.4192,16.3914 39.7932,16.6524 39.9382,17.0454 C40.0832,17.4384 39.9682,17.8804 39.6492,18.1524 L9.6492,43.7614 C9.4632,43.9204 9.2312,44.0004 9.0002,44.0004 C8.7872,44.0004 8.5732,43.9324 8.3942,43.7954 Z" fill="inherit"></path>
</svg>
