<?xml version="1.0" encoding="UTF-8"?>
<svg class="customer-ui__icon" width="48px" height="48px" viewBox="0 0 48 48" fill="#000000" version="1.1" xmlns="http://www.w3.org/2000/svg" xmlns:xlink="http://www.w3.org/1999/xlink">
    <title>Insurance</title>
    <path d="M20.5,44 C18.019,44 16,41.981 16,39.5 L16,36.352 C16,35.8 16.447,35.352 17,35.352 C17.553,35.352 18,35.8 18,36.352 L18,39.5 C18,40.878 19.121,42 20.5,42 C21.879,42 23,40.878 23,39.5 L23,24 C23,20.732 25.579,18.074 28.75,18.074 C30.721,18.074 32.464,19.102 33.5,20.664 C34.536,19.102 36.279,18.074 38.25,18.074 C39.363,18.074 40.403,18.402 41.284,18.968 C39.103,11.484 32.18,6 24,6 C15.82,6 8.897,11.484 6.716,18.968 C7.597,18.402 8.637,18.074 9.75,18.074 C11.73,18.074 13.48,19.111 14.515,20.687 C15.581,19.111 17.385,18.074 19.426,18.074 C19.979,18.074 20.426,18.522 20.426,19.074 C20.426,19.626 19.979,20.074 19.426,20.074 C17.261,20.074 15.5,21.835 15.5,24 C15.5,24.552 15.053,25 14.5,25 C13.947,25 13.5,24.552 13.5,24 C13.5,21.835 11.817,20.074 9.75,20.074 C7.683,20.074 6,21.835 6,24 C6,24.552 5.553,25 5,25 C4.447,25 4,24.552 4,24 C4,12.972 12.972,4 24,4 C35.028,4 44,12.972 44,24 C44,24.552 43.553,25 43,25 C42.447,25 42,24.552 42,24 C42,21.835 40.317,20.074 38.25,20.074 C36.183,20.074 34.5,21.835 34.5,24 C34.5,24.552 34.053,25 33.5,25 C32.947,25 32.5,24.552 32.5,24 C32.5,21.835 30.817,20.074 28.75,20.074 C26.683,20.074 25,21.835 25,24 L25,39.5 C25,41.981 22.981,44 20.5,44" fill="inherit"></path>
</svg>
