<?xml version="1.0" encoding="UTF-8"?>
<svg fill="#000000" class="customer-ui__icon" width="48px" height="48px" stroke-width="0" xmlns="http://www.w3.org/2000/svg" viewBox="0 0 48 48">
  <path d="M33 42c-2.2 0-4-1.8-4-4s1.8-4 4-4 4 1.8 4 4-1.8 4-4 4zm0-6c-1.1 0-2 .9-2 2s.9 2 2 2 2-.9 2-2-.9-2-2-2zm-17 6c-2.2 0-4-1.8-4-4s1.8-4 4-4 4 1.8 4 4-1.8 4-4 4zm0-6c-1.1 0-2 .9-2 2s.9 2 2 2 2-.9 2-2-.9-2-2-2zM34 33H16c-1.7 0-3-1.3-3-3s1.3-3 3-3h18.7c.4 0 .8-.2.9-.6l3.3-8c.2-.5 0-1.1-.5-1.3-.1-.1-.3-.1-.4-.1H14.4c-1.5 0-2.8-1.1-3-2.6l-.3-3.4H7.9c-.6 0-1-.4-1-1s.4-1 1-1H11c1 0 1.9.8 2 1.8l.4 3.4c.1.5.5.9 1 .9H38c.4 0 .8.1 1.2.2 1.5.6 2.3 2.4 1.6 3.9l-3.3 8c-.5 1.1-1.6 1.8-2.8 1.8H16c-.6 0-1 .4-1 1s.4 1 1 1h18c.6 0 1 .4 1 1s-.4 1-1 1zm-20.3-6.6c-.5 0-.9-.4-1-.9l-.8-6.8c-.1-.5.3-1 .9-1.1.5-.1 1 .3 1.1.9l.8 6.8c.1.5-.3 1-.9 1.1h-.1z" fill="inherit" />
</svg>
