<?xml version="1.0" encoding="UTF-8"?>
<svg class="customer-ui__icon" width="48" height="48" viewBox="0 0 48 48" fill="#000000" xmlns="http://www.w3.org/2000/svg">
  <title>Spanner</title>
  <path d="M19.223 3.254c3.1 3.1 4 7.5 2.7 11.4l16.6 16.6c2 2 2 5.2 0 7.2-1 .9-2.3 1.4-3.6 1.4-1.3 0-2.6-.5-3.6-1.5l-16.6-16.6c-4 1.3-8.4.3-11.5-2.7-3.1-3.2-4.1-7.9-2.4-12.1.1-.3.4-.5.7-.6.3-.1.7 0 .9.3l6.8 6.8 3.2-1.1 1.1-3.2-6.8-6.8c-.3-.3-.4-.7-.2-1 .1-.3.4-.6.7-.6 4.1-1.6 8.8-.6 12 2.5Zm-9.9-1.2 6.1 6.1c.3.3.4.7.2 1l-1.5 4.3c-.1.3-.3.5-.6.6l-4.3 1.5c-.4.1-.8 0-1-.2l-6.1-6.1c-.6 3 .3 6.2 2.5 8.4 2.6 2.6 6.5 3.4 9.9 2.1.3-.1.4-.2.5-.2.3 0 .5.1.7.3l17.1 17.1c1.2 1.2 3.2 1.2 4.3 0 1.2-1.2 1.2-3.1 0-4.3l-16.1-16.1c-.5.9-1.1 1.7-1.9 2.5-.4.4-1 .4-1.4 0-.4-.4-.4-1 0-1.4 3.6-3.6 3.6-9.5 0-13.1-2.2-2.2-5.4-3.1-8.4-2.5Zm25 30.8c.1 0 .1 0 .2.1.1 0 .1.1.2.1s.1.1.2.1c.1.1.2.2.2.3 0 .1.1.2.1.4 0 .3-.1.5-.3.7-.1.1-.2.2-.3.2-.3.1-.5.1-.6.1-.3 0-.5-.1-.7-.3-.1-.1-.2-.2-.2-.3 0-.1-.1-.2-.1-.4 0-.1 0-.3.1-.4l.059-.075.081-.15a.415.415 0 0 1 .06-.075s.1-.1.2-.1.1-.1.2-.1.1 0 .2-.1h.4Z" fill="inherit"/>
</svg>
