<svg width="48" height="48" class="customer-ui__icon" xmlns="http://www.w3.org/2000/svg" xmlns:xlink="http://www.w3.org/1999/xlink">
  <title>Tick</title>
  <defs>
    <path d="M13.323 7.028a19.86 19.86 0 0125.134 3.364 1 1 0 01.102 1.226l-.075.1-15.86 18.66a1 1 0 01-1.377.14l-.092-.081-8-8a1 1 0 011.32-1.497l.094.083 7.233 7.232 14.57-17.141-.189-.184a17.861 17.861 0 00-21.47-2.408l-.328.2a17.86 17.86 0 1027.337 15.11 1 1 0 112-.004 19.86 19.86 0 11-30.399-16.8z" id="a"/>
  </defs>
  <g stroke="none" stroke-width="1" fill="inherit" fill-rule="evenodd">
    <path fill="none" d="M0 0h48v48H0z"/>
    <mask id="b" fill="#fff">
      <use xlink:href="#a"/>
    </mask>
    <use fill="inherit" fill-rule="nonzero" xlink:href="#a"/>
    <path fill="inherit" mask="url(#b)" d="M0 0h48v48H0z"/>
  </g>
</svg>