<?xml version="1.0" encoding="UTF-8"?>
<svg fill="#000000" class="customer-ui__icon" width="48" height="48" stroke-width="0"
    xmlns="http://www.w3.org/2000/svg">
    <switch>
        <g>
            <path fill="inherit"
                d="M43.4 27l-3.6-9.4c0-.1-.1-.1-.1-.2l-.1-.1s-.1-.1-.2-.1-.1-.1-.2-.1H13c-.6 0-1 .4-1 1s.4 1 1 1h25.2l3.3 8.7c.8 2.1.5 4.4-.8 6.3-1.3 1.9-3.4 3-5.6 3H13c-2.3 0-4.3-1.1-5.6-2.9-1.4-2-1.7-4.2-.9-6.4l2.9-8.2c.4-1 .5-2 .5-3v-2.8c0-.4.3-.7.7-.7h26.5c.4 0 .7.3.7.7v.3c0 .6.4 1 1 1s1-.4 1-1v-.3c0-1.5-1.2-2.7-2.7-2.7h-8.4c.1-.3.2-.7.2-1 0-1.7-1.4-3-3-3-.8 0-1.5.3-2 .8-.5-.5-1.2-.8-2-.8-1.7 0-3 1.4-3 3 0 .4.1.7.2 1h-8.4C9.2 11 8 12.2 8 13.7v2.8c0 .8-.1 1.6-.4 2.4l-2.9 8.2c-1 2.7-.6 5.7 1.1 8.1C7.4 37.6 10 39 13 39h22.2c2.9 0 5.6-1.4 7.3-3.8s1.9-5.5.9-8.2zM25.9 9c.6 0 1 .5 1 1s-.5 1-1 1-1-.4-1-.9v-.2c.1-.5.5-.9 1-.9zm-5 1c0-.6.5-1 1-1s1 .4 1 .9v.2c-.1.5-.5.9-1 .9-.6 0-1-.4-1-1z" />
        </g>
    </switch>
</svg>