<?xml version="1.0" encoding="utf-8"?>
<!-- Generator: Adobe Illustrator 24.0.0, SVG Export Plug-In . SVG Version: 6.00 Build 0)  -->
<svg version="1.1" id="Layer_1" xmlns="http://www.w3.org/2000/svg" xmlns:xlink="http://www.w3.org/1999/xlink" x="0px" y="0px"
	 viewBox="0 0 636.85 291.03" style="enable-background:new 0 0 636.85 291.03;" xml:space="preserve">
<path fill="#F495F9" d="M486.16,272.93c-13.68,0-25.92-8.16-31.17-20.8L408.28,139.8l-46.71,112.34c-5.25,12.63-17.49,20.8-31.17,20.8
	c-13.47,0-25.8-7.88-30.68-19.61l-23.35-56.16c-0.95-2.29,0.13-4.93,2.43-5.88c2.3-0.95,4.93,0.13,5.88,2.43l23.35,56.16
	c3.44,8.28,12.64,14.07,22.37,14.07c10.03,0,19.01-5.99,22.86-15.25l50.87-122.33c0.7-1.68,2.34-2.77,4.16-2.77s3.46,1.09,4.16,2.77
	l50.87,122.33c3.85,9.27,12.82,15.25,22.86,15.25c10.03,0,19.01-5.99,22.86-15.25L586.9,61.38c2.54-6.11,2.55-12.83,0.03-18.95
	c-2.52-6.11-7.27-10.88-13.38-13.42c-6.11-2.54-12.84-2.55-18.95-0.03c-6.11,2.52-10.88,7.27-13.42,13.38L490.32,164.7
	c-0.7,1.68-2.34,2.77-4.16,2.77s-3.46-1.09-4.16-2.77L431.14,42.37c-3.85-9.27-12.83-15.25-22.86-15.25
	c-10.03,0-19.01,5.99-22.86,15.25L334.55,164.7c-0.7,1.68-2.34,2.77-4.15,2.77s-3.46-1.09-4.16-2.77L275.37,42.37
	c-2.54-6.11-7.3-10.86-13.42-13.38c-6.11-2.52-12.84-2.51-18.95,0.03c-6.11,2.54-10.86,7.3-13.38,13.42
	c-2.52,6.11-2.51,12.84,0.03,18.95l25.27,60.36c13.64,32.8,12.01,68.09-4.47,96.85c-16.58,28.93-46.49,48.31-82.08,53.19
	c-5.51,0.76-11.12,1.14-16.66,1.14c-27.85,0-54.21-9.61-74.21-27.06c-24.81-21.64-38.47-53.65-38.47-90.13V51.87
	c0-18.61,15.14-33.76,33.76-33.76s33.76,15.14,33.76,33.76v103.86c0,16.93,5.3,30.51,15.34,39.26c9.6,8.37,22.85,11.89,37.34,9.9
	c14.89-2.04,26.49-9.09,32.66-19.86c6.07-10.6,6.33-23.87,0.72-37.36l-34.44-82.84c-3.46-8.32-3.47-17.5-0.04-25.84
	c3.44-8.34,9.92-14.83,18.24-18.29c9.92-4.13,21.34-3.25,30.53,2.34c2.12,1.29,2.8,4.06,1.5,6.18c-1.29,2.12-4.06,2.8-6.18,1.5
	c-6.75-4.11-15.12-4.75-22.4-1.72c-6.11,2.54-10.86,7.3-13.38,13.42c-2.52,6.11-2.51,12.84,0.03,18.95l34.44,82.84
	c6.71,16.13,6.27,32.21-1.22,45.29c-7.59,13.25-21.53,21.88-39.25,24.3c-17.1,2.34-32.89-1.93-44.47-12.04
	c-12.05-10.51-18.42-26.44-18.42-46.04V51.87c0-13.65-11.11-24.76-24.76-24.76c-13.65,0-24.76,11.11-24.76,24.76v103.86
	c0,33.84,12.57,63.45,35.38,83.35c18.37,16.02,42.62,24.84,68.3,24.84c5.13,0,10.33-0.36,15.44-1.06
	c32.8-4.49,60.32-22.26,75.49-48.74c15.08-26.32,16.53-58.73,3.98-88.91l-25.27-60.36c-3.47-8.33-3.48-17.51-0.04-25.85
	c3.44-8.34,9.92-14.83,18.24-18.29c8.32-3.46,17.5-3.48,25.84-0.04c8.34,3.44,14.83,9.92,18.29,18.25l46.71,112.34l46.71-112.34
	c5.25-12.63,17.49-20.8,31.17-20.8c13.68,0,25.92,8.16,31.17,20.8l46.71,112.34l46.71-112.34c3.46-8.33,9.96-14.81,18.3-18.24
	c8.34-3.44,17.51-3.43,25.84,0.04c8.33,3.46,14.8,9.96,18.24,18.29c3.44,8.34,3.43,17.51-0.04,25.84l-77.88,187.29
	C512.08,264.77,499.84,272.93,486.16,272.93z"/>
</svg>
