<svg xmlns="http://www.w3.org/2000/svg" viewBox="0 0 636.85 291.03" style="enable-background:new 0 0 636.85 291.03" xml:space="preserve"><path d="M486.16 272.93c-13.68 0-25.92-8.16-31.17-20.8L408.28 139.8l-46.71 112.34a33.672 33.672 0 0 1-31.17 20.8c-13.47 0-25.8-7.88-30.68-19.61l-23.35-56.16c-.95-2.29.13-4.93 2.43-5.88 2.3-.95 4.93.13 5.88 2.43l23.35 56.16c3.44 8.28 12.64 14.07 22.37 14.07 10.03 0 19.01-5.99 22.86-15.25l50.87-122.33c.7-1.68 2.34-2.77 4.16-2.77s3.46 1.09 4.16 2.77l50.87 122.33c3.85 9.27 12.82 15.25 22.86 15.25 10.03 0 19.01-5.99 22.86-15.25L586.9 61.38c2.54-6.11 2.55-12.83.03-18.95-2.52-6.11-7.27-10.88-13.38-13.42-6.11-2.54-12.84-2.55-18.95-.03-6.11 2.52-10.88 7.27-13.42 13.38L490.32 164.7c-.7 1.68-2.34 2.77-4.16 2.77s-3.46-1.09-4.16-2.77L431.14 42.37a24.682 24.682 0 0 0-22.86-15.25c-10.03 0-19.01 5.99-22.86 15.25L334.55 164.7c-.7 1.68-2.34 2.77-4.15 2.77s-3.46-1.09-4.16-2.77L275.37 42.37c-2.54-6.11-7.3-10.86-13.42-13.38-6.11-2.52-12.84-2.51-18.95.03-6.11 2.54-10.86 7.3-13.38 13.42-2.52 6.11-2.51 12.84.03 18.95l25.27 60.36c13.64 32.8 12.01 68.09-4.47 96.85-16.58 28.93-46.49 48.31-82.08 53.19-5.51.76-11.12 1.14-16.66 1.14-27.85 0-54.21-9.61-74.21-27.06-24.81-21.64-38.47-53.65-38.47-90.13V51.87c0-18.61 15.14-33.76 33.76-33.76s33.76 15.14 33.76 33.76v103.86c0 16.93 5.3 30.51 15.34 39.26 9.6 8.37 22.85 11.89 37.34 9.9 14.89-2.04 26.49-9.09 32.66-19.86 6.07-10.6 6.33-23.87.72-37.36l-34.44-82.84c-3.46-8.32-3.47-17.5-.04-25.84 3.44-8.34 9.92-14.83 18.24-18.29 9.92-4.13 21.34-3.25 30.53 2.34a4.49 4.49 0 0 1 1.5 6.18 4.49 4.49 0 0 1-6.18 1.5c-6.75-4.11-15.12-4.75-22.4-1.72-6.11 2.54-10.86 7.3-13.38 13.42-2.52 6.11-2.51 12.84.03 18.95l34.44 82.84c6.71 16.13 6.27 32.21-1.22 45.29-7.59 13.25-21.53 21.88-39.25 24.3-17.1 2.34-32.89-1.93-44.47-12.04-12.05-10.51-18.42-26.44-18.42-46.04V51.87c0-13.65-11.11-24.76-24.76-24.76-13.65 0-24.76 11.11-24.76 24.76v103.86c0 33.84 12.57 63.45 35.38 83.35 18.37 16.02 42.62 24.84 68.3 24.84 5.13 0 10.33-.36 15.44-1.06 32.8-4.49 60.32-22.26 75.49-48.74 15.08-26.32 16.53-58.73 3.98-88.91l-25.27-60.36c-3.47-8.33-3.48-17.51-.04-25.85s9.92-14.83 18.24-18.29c8.32-3.46 17.5-3.48 25.84-.04s14.83 9.92 18.29 18.25l46.71 112.34L377.1 38.92a33.672 33.672 0 0 1 31.17-20.8c13.68 0 25.92 8.16 31.17 20.8l46.71 112.34 46.71-112.34c3.46-8.33 9.96-14.81 18.3-18.24 8.34-3.44 17.51-3.43 25.84.04 8.33 3.46 14.8 9.96 18.24 18.29 3.44 8.34 3.43 17.51-.04 25.84l-77.88 187.29c-5.24 12.63-17.48 20.79-31.16 20.79z"/></svg>
