<?xml version="1.0" encoding="UTF-8"?>
<svg width="56px" height="42px" viewBox="0 0 56 42" version="1.1" xmlns="http://www.w3.org/2000/svg" xmlns:xlink="http://www.w3.org/1999/xlink">
    <title>C0869104-C5E2-46F7-8C96-F7531D508C7A</title>
    <g id="CBC-3---V1-Hi-fi" stroke="none" stroke-width="1" fill="none" fill-rule="evenodd">
        <g id="6200-Top-up-select-card" transform="translate(-32.000000, -161.000000)">
            <g id="Group-5" transform="translate(16.000000, 145.000000)">
                <g id="Payment-Card-Type/Visa-Copy" transform="translate(16.000000, 16.000000)">
                    <rect id="Rectangle" fill="#cfcfcf" x="0" y="0" width="56" height="42" rx="4"></rect>
                    <g id="Group-9" transform="translate(28.000000, 21.000000)">
                        <polygon id="Fill-1" fill="#FF5F00" points="8.75550459 13.2479935 15.2451364 13.2479935 15.2451364 1.58602204 8.75550459 1.58602204"></polygon>
                        <g id="Group-8">
                            <path d="M9.16756531,7.41702835 C9.16550511,5.14133079 10.2100268,2.99109944 12.0003411,1.58604265 C8.77983556,-0.945325809 4.1171896,-0.386599411 1.58602717,2.83370012 C-0.945341285,6.05399965 -0.386614887,10.7168516 2.83368464,13.2480141 C5.52348252,15.3621919 9.31054323,15.3621919 12.0003411,13.2480141 C10.2100268,11.8429573 9.16550511,9.69272591 9.16756531,7.41702835" id="Fill-2" fill="#EB001B"></path>
                            <path d="M24,7.41702835 C24.000206,11.5131191 20.6797807,14.8335444 16.583896,14.8337504 C14.9215201,14.8337504 13.307353,14.2754361 12.0001557,13.2480141 C15.2206612,10.7158215 15.7785636,6.05235149 13.246371,2.83205196 C12.8819215,2.36871285 12.4637008,1.95028611 12.0001557,1.58604265 C15.2206612,-0.945325809 19.8831012,-0.386599411 22.4142636,2.8334941 C23.4414796,4.14048535 24,5.7546525 24,7.41702835" id="Fill-4" fill="#F79E1B"></path>
                            <path d="M24.1435746,12.7250314 L24.1435746,11.7250314 L24.0232317,11.7250314 L23.884755,12.4122182 L23.7466079,11.7250314 L23.626265,11.7250314 L23.626265,12.7250314 L23.7109996,12.7250314 L23.7109996,11.9705575 L23.840904,12.6205217 L23.9289356,12.6205217 L24.0585103,11.96841 L24.0585103,12.7250314 L24.1435746,12.7250314 Z M23.3816228,12.7250314 L23.3816228,11.8953964 L23.5355957,11.8953964 L23.5355957,11.726463 L23.1435746,11.726463 L23.1435746,11.8953964 L23.2975476,11.8953964 L23.2975476,12.7250314 L23.3816228,12.7250314 Z" id="Fill-6" fill="#F79E1B"></path>
                        </g>
                    </g>
                </g>
            </g>
        </g>
    </g>
</svg>